solid AAA_Divider_Loose
facet normal 0.0 0.0 1.0
  outer loop
    vertex 2.0 -1.0715872633682e-013 64.0
    vertex -1.76434004487486e-015 9.99999999999991 64.0
    vertex -2.99807538098956e-015 -1.04338759854272e-013 64.0
  endloop
endfacet
facet normal 0.0 0.0 1.0
  outer loop
    vertex -1.76434004487486e-015 9.99999999999991 64.0
    vertex 2.0 -1.0715872633682e-013 64.0
    vertex 1.99999999999999 9.99999999999991 64.0
  endloop
endfacet
facet normal 9.96133065236373e-016 1.0 1.55843067461888e-015
  outer loop
    vertex -1.76434004487486e-015 9.99999999999991 64.0
    vertex 2.1 10.0 2.25597318603832e-014
    vertex -1.76434004487486e-015 10.0 2.25597318603832e-014
  endloop
endfacet
facet normal 9.96133065236373e-016 1.0 1.55843067461888e-015
  outer loop
    vertex 2.1 10.0 2.25597318603832e-014
    vertex -1.76434004487486e-015 9.99999999999991 64.0
    vertex 2.0 10.0 4.0
  endloop
endfacet
facet normal 9.96133065236373e-016 1.0 1.55843067461888e-015
  outer loop
    vertex 2.0 10.0 4.0
    vertex -1.76434004487486e-015 9.99999999999991 64.0
    vertex 1.99999999999999 9.99999999999991 64.0
  endloop
endfacet
facet normal 9.96133065236373e-016 1.0 1.55843067461888e-015
  outer loop
    vertex 2.09999999999999 10.0 4.0
    vertex 2.1 10.0 2.25597318603832e-014
    vertex 2.0 10.0 4.0
  endloop
endfacet
facet normal -1.0 -2.64371857738865e-017 -2.34079249039621e-017
  outer loop
    vertex -1.76434004487486e-015 9.99999999999991 64.0
    vertex -1.86099328242314e-018 0.0 0.0
    vertex -2.99807538098956e-015 -1.04338759854272e-013 64.0
  endloop
endfacet
facet normal -1.0 -2.64371857738865e-017 -2.34079249039621e-017
  outer loop
    vertex -1.86099328242314e-018 0.0 0.0
    vertex -1.76434004487486e-015 9.99999999999991 64.0
    vertex -1.76434004487486e-015 10.0 2.25597318603832e-014
  endloop
endfacet
facet normal -2.24931178732248e-016 1.0 1.43048380536355e-015
  outer loop
    vertex 4.19999999999999 5.99999999999991 60.0
    vertex 51.0 6.00000000000002 4.0
    vertex 4.19999999999999 6.0 4.0
  endloop
endfacet
facet normal -2.24931178732248e-016 1.0 1.43048380536355e-015
  outer loop
    vertex 51.0 6.00000000000002 4.0
    vertex 4.19999999999999 5.99999999999991 60.0
    vertex 51.0000000000001 5.99999999999993 60.0
  endloop
endfacet
facet normal -2.24931178732248e-016 1.0 1.43048380536355e-015
  outer loop
    vertex 4.09999999999999 6.0 4.0
    vertex 51.1 6.0 0.0
    vertex 4.09999999999999 6.0 0.0
  endloop
endfacet
facet normal -2.24931178732248e-016 1.0 1.43048380536355e-015
  outer loop
    vertex 51.1 6.0 0.0
    vertex 4.09999999999999 6.0 4.0
    vertex 51.1 6.0 4.0
  endloop
endfacet
facet normal -2.24931178732248e-016 1.0 1.43048380536355e-015
  outer loop
    vertex 51.1 6.0 4.0
    vertex 4.09999999999999 6.0 4.0
    vertex 4.19999999999999 6.0 4.0
  endloop
endfacet
facet normal -2.24931178732248e-016 1.0 1.43048380536355e-015
  outer loop
    vertex 51.1 6.0 4.0
    vertex 4.19999999999999 6.0 4.0
    vertex 51.0 6.00000000000002 4.0
  endloop
endfacet
facet normal -0.707106781186551 0.707106781186545 -9.76854335948681e-016
  outer loop
    vertex 53.0999999999999 9.99999999999999 4.00000000000002
    vertex 51.1 8.00000000000002 4.51194637207664e-014
    vertex 51.0999999999999 7.99999999999997 4.00000000000002
  endloop
endfacet
facet normal -0.707106781186551 0.707106781186545 -9.76854335948681e-016
  outer loop
    vertex 51.1 8.00000000000002 4.51194637207664e-014
    vertex 53.0999999999999 9.99999999999999 4.00000000000002
    vertex 53.1 10.0 4.51194637207664e-014
  endloop
endfacet
facet normal -1.12798659301922e-014 -2.25597318603838e-015 1.0
  outer loop
    vertex 53.1999999999993 -6.90891788224235e-014 64.0
    vertex 55.1999999999992 9.99999999999993 64.0
    vertex 53.1999999999992 9.9999999999999 64.0
  endloop
endfacet
facet normal -1.12798659301922e-014 -2.25597318603838e-015 1.0
  outer loop
    vertex 55.1999999999992 9.99999999999993 64.0
    vertex 53.1999999999993 -6.90891788224235e-014 64.0
    vertex 55.1999999999992 -9.58788604066285e-014 64.0
  endloop
endfacet
facet normal 1.0 -2.81996648254794e-015 1.08392461672935e-014
  outer loop
    vertex 55.1999999999999 5.63993296509579e-015 3.38395977905748e-014
    vertex 55.1999999999992 9.99999999999993 64.0
    vertex 55.1999999999992 -9.58788604066285e-014 64.0
  endloop
endfacet
facet normal 1.0 -2.81996648254794e-015 1.08392461672935e-014
  outer loop
    vertex 55.1999999999992 9.99999999999993 64.0
    vertex 55.1999999999999 5.63993296509579e-015 3.38395977905748e-014
    vertex 55.2 10.0 7.89590615113411e-014
  endloop
endfacet
facet normal -1.0 -3.38395977905746e-014 -5.63993296509598e-015
  outer loop
    vertex 51.0999999999999 7.99999999999997 4.00000000000002
    vertex 51.1 6.0 0.0
    vertex 51.1 6.0 4.0
  endloop
endfacet
facet normal -1.0 -3.38395977905746e-014 -5.63993296509598e-015
  outer loop
    vertex 51.1 6.0 0.0
    vertex 51.0999999999999 7.99999999999997 4.00000000000002
    vertex 51.1 8.00000000000002 4.51194637207664e-014
  endloop
endfacet
facet normal 1.0 -1.05748743095545e-015 -5.28743715477736e-016
  outer loop
    vertex 4.09999999999999 8.00000000000002 1.12798659301916e-014
    vertex 4.09999999999999 6.0 4.0
    vertex 4.09999999999999 6.0 0.0
  endloop
endfacet
facet normal 1.0 -1.05748743095545e-015 -5.28743715477736e-016
  outer loop
    vertex 4.09999999999999 6.0 4.0
    vertex 4.09999999999999 8.00000000000002 1.12798659301916e-014
    vertex 4.1 7.99999999999998 3.99999999999998
  endloop
endfacet
facet normal 0.707106781186548 0.707106781186547 4.5504100712543e-015
  outer loop
    vertex 4.09999999999999 8.00000000000002 1.12798659301916e-014
    vertex 2.09999999999999 10.0 4.0
    vertex 4.1 7.99999999999998 3.99999999999998
  endloop
endfacet
facet normal 0.707106781186548 0.707106781186547 4.5504100712543e-015
  outer loop
    vertex 2.09999999999999 10.0 4.0
    vertex 4.09999999999999 8.00000000000002 1.12798659301916e-014
    vertex 2.1 10.0 2.25597318603832e-014
  endloop
endfacet
facet normal -5.75337989255476e-015 8.32121257145258e-016 1.0
  outer loop
    vertex 51.1000000000001 4.00000000000002 4.00000000000002
    vertex 51.0 6.00000000000002 4.0
    vertex 51.0 4.00000000000001 4.00000000000002
  endloop
endfacet
facet normal -5.75337989255476e-015 8.32121257145258e-016 1.0
  outer loop
    vertex 51.0 6.00000000000002 4.0
    vertex 51.1000000000001 4.00000000000002 4.00000000000002
    vertex 51.1 6.0 4.0
  endloop
endfacet
facet normal -5.75337989255476e-015 8.32121257145258e-016 1.0
  outer loop
    vertex 53.1 2.96096480667529e-014 4.00000000000003
    vertex 51.1000000000001 4.00000000000002 4.00000000000002
    vertex 51.1 2.00000000000001 4.0
  endloop
endfacet
facet normal -5.75337989255476e-015 8.32121257145258e-016 1.0
  outer loop
    vertex 51.1000000000001 4.00000000000002 4.00000000000002
    vertex 53.1 2.96096480667529e-014 4.00000000000003
    vertex 53.0999999999999 9.99999999999999 4.00000000000002
  endloop
endfacet
facet normal -5.75337989255476e-015 8.32121257145258e-016 1.0
  outer loop
    vertex 53.0999999999999 9.99999999999999 4.00000000000002
    vertex 53.1 2.96096480667529e-014 4.00000000000003
    vertex 53.1999999999999 9.99999999999999 4.00000000000002
  endloop
endfacet
facet normal -5.75337989255476e-015 8.32121257145258e-016 1.0
  outer loop
    vertex 53.1999999999999 9.99999999999999 4.00000000000002
    vertex 53.1 2.96096480667529e-014 4.00000000000003
    vertex 53.2 2.96096480667529e-014 4.00000000000003
  endloop
endfacet
facet normal -5.75337989255476e-015 8.32121257145258e-016 1.0
  outer loop
    vertex 51.1 6.0 4.0
    vertex 53.0999999999999 9.99999999999999 4.00000000000002
    vertex 51.0999999999999 7.99999999999997 4.00000000000002
  endloop
endfacet
facet normal -5.75337989255476e-015 8.32121257145258e-016 1.0
  outer loop
    vertex 53.0999999999999 9.99999999999999 4.00000000000002
    vertex 51.1 6.0 4.0
    vertex 51.1000000000001 4.00000000000002 4.00000000000002
  endloop
endfacet
facet normal -1.3377669189211e-014 -1.0 -1.58254849912489e-015
  outer loop
    vertex 55.1999999999999 5.63993296509579e-015 3.38395977905748e-014
    vertex 53.1 2.96096480667529e-014 4.00000000000003
    vertex 53.1 2.8199664825479e-014 2.25597318603832e-014
  endloop
endfacet
facet normal -1.3377669189211e-014 -1.0 -1.58254849912489e-015
  outer loop
    vertex 53.1 2.96096480667529e-014 4.00000000000003
    vertex 55.1999999999999 5.63993296509579e-015 3.38395977905748e-014
    vertex 53.2 2.96096480667529e-014 4.00000000000003
  endloop
endfacet
facet normal -1.3377669189211e-014 -1.0 -1.58254849912489e-015
  outer loop
    vertex 53.2 2.96096480667529e-014 4.00000000000003
    vertex 55.1999999999999 5.63993296509579e-015 3.38395977905748e-014
    vertex 55.1999999999992 -9.58788604066285e-014 64.0
  endloop
endfacet
facet normal -1.3377669189211e-014 -1.0 -1.58254849912489e-015
  outer loop
    vertex 53.2 2.96096480667529e-014 4.00000000000003
    vertex 55.1999999999992 -9.58788604066285e-014 64.0
    vertex 53.1999999999993 -6.90891788224235e-014 64.0
  endloop
endfacet
facet normal -1.08044692817922e-016 7.39663339684693e-016 1.0
  outer loop
    vertex 4.1 1.99999999999999 4.0
    vertex 4.09999999999999 6.0 4.0
    vertex 2.1 4.22994972382185e-015 4.0
  endloop
endfacet
facet normal -1.08044692817922e-016 7.39663339684693e-016 1.0
  outer loop
    vertex 4.09999999999999 6.0 4.0
    vertex 4.1 1.99999999999999 4.0
    vertex 4.1 3.99999999999999 4.00000000000002
  endloop
endfacet
facet normal -1.08044692817922e-016 7.39663339684693e-016 1.0
  outer loop
    vertex 4.09999999999999 6.0 4.0
    vertex 4.1 3.99999999999999 4.00000000000002
    vertex 4.19999999999999 6.0 4.0
  endloop
endfacet
facet normal -1.08044692817922e-016 7.39663339684693e-016 1.0
  outer loop
    vertex 4.19999999999999 6.0 4.0
    vertex 4.1 3.99999999999999 4.00000000000002
    vertex 4.19999999999999 3.99999999999999 4.00000000000002
  endloop
endfacet
facet normal -1.08044692817922e-016 7.39663339684693e-016 1.0
  outer loop
    vertex 2.0 5.63993296509579e-015 4.0
    vertex 2.09999999999999 10.0 4.0
    vertex 2.0 10.0 4.0
  endloop
endfacet
facet normal -1.08044692817922e-016 7.39663339684693e-016 1.0
  outer loop
    vertex 2.09999999999999 10.0 4.0
    vertex 2.0 5.63993296509579e-015 4.0
    vertex 2.1 4.22994972382185e-015 4.0
  endloop
endfacet
facet normal -1.08044692817922e-016 7.39663339684693e-016 1.0
  outer loop
    vertex 2.09999999999999 10.0 4.0
    vertex 2.1 4.22994972382185e-015 4.0
    vertex 4.1 7.99999999999998 3.99999999999998
  endloop
endfacet
facet normal -1.08044692817922e-016 7.39663339684693e-016 1.0
  outer loop
    vertex 4.1 7.99999999999998 3.99999999999998
    vertex 2.1 4.22994972382185e-015 4.0
    vertex 4.09999999999999 6.0 4.0
  endloop
endfacet
facet normal 4.40726568774248e-016 2.8669659239237e-015 -1.0
  outer loop
    vertex 53.1 10.0 4.51194637207664e-014
    vertex 51.1 6.0 0.0
    vertex 51.1 8.00000000000002 4.51194637207664e-014
  endloop
endfacet
facet normal 4.40726568774248e-016 2.8669659239237e-015 -1.0
  outer loop
    vertex 51.1 6.0 0.0
    vertex 53.1 10.0 4.51194637207664e-014
    vertex 51.1 4.00000000000001 -1.12798659301916e-014
  endloop
endfacet
facet normal 4.40726568774248e-016 2.8669659239237e-015 -1.0
  outer loop
    vertex 51.1 4.00000000000001 -1.12798659301916e-014
    vertex 53.1 2.8199664825479e-014 2.25597318603832e-014
    vertex 51.1 2.00000000000003 1.12798659301916e-014
  endloop
endfacet
facet normal 4.40726568774248e-016 2.8669659239237e-015 -1.0
  outer loop
    vertex 53.1 2.8199664825479e-014 2.25597318603832e-014
    vertex 51.1 4.00000000000001 -1.12798659301916e-014
    vertex 53.1 10.0 4.51194637207664e-014
  endloop
endfacet
facet normal 4.40726568774248e-016 2.8669659239237e-015 -1.0
  outer loop
    vertex 53.1 2.8199664825479e-014 2.25597318603832e-014
    vertex 53.1 10.0 4.51194637207664e-014
    vertex 55.2 10.0 7.89590615113411e-014
  endloop
endfacet
facet normal 4.40726568774248e-016 2.8669659239237e-015 -1.0
  outer loop
    vertex 53.1 2.8199664825479e-014 2.25597318603832e-014
    vertex 55.2 10.0 7.89590615113411e-014
    vertex 55.1999999999999 5.63993296509579e-015 3.38395977905748e-014
  endloop
endfacet
facet normal 4.40726568774248e-016 2.8669659239237e-015 -1.0
  outer loop
    vertex 2.1 10.0 2.25597318603832e-014
    vertex -1.86099328242314e-018 0.0 0.0
    vertex -1.76434004487486e-015 10.0 2.25597318603832e-014
  endloop
endfacet
facet normal 4.40726568774248e-016 2.8669659239237e-015 -1.0
  outer loop
    vertex -1.86099328242314e-018 0.0 0.0
    vertex 2.1 10.0 2.25597318603832e-014
    vertex 2.1 -4.22994972382185e-015 0.0
  endloop
endfacet
facet normal 4.40726568774248e-016 2.8669659239237e-015 -1.0
  outer loop
    vertex 2.1 -4.22994972382185e-015 0.0
    vertex 2.1 10.0 2.25597318603832e-014
    vertex 4.09999999999999 8.00000000000002 1.12798659301916e-014
  endloop
endfacet
facet normal 4.40726568774248e-016 2.8669659239237e-015 -1.0
  outer loop
    vertex 2.1 -4.22994972382185e-015 0.0
    vertex 4.09999999999999 8.00000000000002 1.12798659301916e-014
    vertex 4.09999999999999 6.0 0.0
  endloop
endfacet
facet normal 4.40726568774248e-016 2.8669659239237e-015 -1.0
  outer loop
    vertex 2.1 -4.22994972382185e-015 0.0
    vertex 4.09999999999999 6.0 0.0
    vertex 4.1 1.99999999999998 1.12798659301916e-014
  endloop
endfacet
facet normal 4.40726568774248e-016 2.8669659239237e-015 -1.0
  outer loop
    vertex 4.1 1.99999999999998 1.12798659301916e-014
    vertex 4.09999999999999 6.0 0.0
    vertex 4.1 3.99999999999998 -1.12798659301916e-014
  endloop
endfacet
facet normal 4.40726568774248e-016 2.8669659239237e-015 -1.0
  outer loop
    vertex 4.1 3.99999999999998 -1.12798659301916e-014
    vertex 4.09999999999999 6.0 0.0
    vertex 51.1 6.0 0.0
  endloop
endfacet
facet normal 4.40726568774248e-016 2.8669659239237e-015 -1.0
  outer loop
    vertex 4.1 3.99999999999998 -1.12798659301916e-014
    vertex 51.1 6.0 0.0
    vertex 51.1 4.00000000000001 -1.12798659301916e-014
  endloop
endfacet
facet normal 1.0 -7.04991620636977e-016 -3.52495810318484e-016
  outer loop
    vertex 4.1 3.99999999999998 -1.12798659301916e-014
    vertex 4.1 1.99999999999999 4.0
    vertex 4.1 1.99999999999998 1.12798659301916e-014
  endloop
endfacet
facet normal 1.0 -7.04991620636977e-016 -3.52495810318484e-016
  outer loop
    vertex 4.1 1.99999999999999 4.0
    vertex 4.1 3.99999999999998 -1.12798659301916e-014
    vertex 4.1 3.99999999999999 4.00000000000002
  endloop
endfacet
facet normal 0.707106781186545 -0.70710678118655 1.6322123081673e-015
  outer loop
    vertex 4.1 1.99999999999998 1.12798659301916e-014
    vertex 2.1 4.22994972382185e-015 4.0
    vertex 2.1 -4.22994972382185e-015 0.0
  endloop
endfacet
facet normal 0.707106781186545 -0.70710678118655 1.6322123081673e-015
  outer loop
    vertex 2.1 4.22994972382185e-015 4.0
    vertex 4.1 1.99999999999998 1.12798659301916e-014
    vertex 4.1 1.99999999999999 4.0
  endloop
endfacet
facet normal 1.34156004911215e-015 -1.0 -1.70668277145652e-015
  outer loop
    vertex 2.1 4.22994972382185e-015 4.0
    vertex -1.86099328242314e-018 0.0 0.0
    vertex 2.1 -4.22994972382185e-015 0.0
  endloop
endfacet
facet normal 1.34156004911215e-015 -1.0 -1.70668277145652e-015
  outer loop
    vertex -1.86099328242314e-018 0.0 0.0
    vertex 2.1 4.22994972382185e-015 4.0
    vertex 2.0 5.63993296509579e-015 4.0
  endloop
endfacet
facet normal 1.34156004911215e-015 -1.0 -1.70668277145652e-015
  outer loop
    vertex -1.86099328242314e-018 0.0 0.0
    vertex 2.0 5.63993296509579e-015 4.0
    vertex -2.99807538098956e-015 -1.04338759854272e-013 64.0
  endloop
endfacet
facet normal 1.34156004911215e-015 -1.0 -1.70668277145652e-015
  outer loop
    vertex -2.99807538098956e-015 -1.04338759854272e-013 64.0
    vertex 2.0 5.63993296509579e-015 4.0
    vertex 2.0 -1.0715872633682e-013 64.0
  endloop
endfacet
facet normal -0.707106781186545 -0.70710678118655 -2.85637153929276e-015
  outer loop
    vertex 53.1 2.8199664825479e-014 2.25597318603832e-014
    vertex 51.1 2.00000000000001 4.0
    vertex 51.1 2.00000000000003 1.12798659301916e-014
  endloop
endfacet
facet normal -0.707106781186545 -0.70710678118655 -2.85637153929276e-015
  outer loop
    vertex 51.1 2.00000000000001 4.0
    vertex 53.1 2.8199664825479e-014 2.25597318603832e-014
    vertex 53.1 2.96096480667529e-014 4.00000000000003
  endloop
endfacet
facet normal -1.67843101689578e-014 1.0 1.77791409908102e-015
  outer loop
    vertex 53.0999999999999 9.99999999999999 4.00000000000002
    vertex 55.2 10.0 7.89590615113411e-014
    vertex 53.1 10.0 4.51194637207664e-014
  endloop
endfacet
facet normal -1.67843101689578e-014 1.0 1.77791409908102e-015
  outer loop
    vertex 55.2 10.0 7.89590615113411e-014
    vertex 53.0999999999999 9.99999999999999 4.00000000000002
    vertex 53.1999999999999 9.99999999999999 4.00000000000002
  endloop
endfacet
facet normal -1.67843101689578e-014 1.0 1.77791409908102e-015
  outer loop
    vertex 55.2 10.0 7.89590615113411e-014
    vertex 53.1999999999999 9.99999999999999 4.00000000000002
    vertex 55.1999999999992 9.99999999999993 64.0
  endloop
endfacet
facet normal -1.67843101689578e-014 1.0 1.77791409908102e-015
  outer loop
    vertex 55.1999999999992 9.99999999999993 64.0
    vertex 53.1999999999999 9.99999999999999 4.00000000000002
    vertex 53.1999999999992 9.9999999999999 64.0
  endloop
endfacet
facet normal -1.38746555260303e-016 0.707106781186548 -0.707106781186547
  outer loop
    vertex 4.19999999999999 7.99999999999991 62.0
    vertex 51.0000000000001 5.99999999999993 60.0
    vertex 4.19999999999999 5.99999999999991 60.0
  endloop
endfacet
facet normal -1.38746555260303e-016 0.707106781186548 -0.707106781186547
  outer loop
    vertex 51.0000000000001 5.99999999999993 60.0
    vertex 4.19999999999999 7.99999999999991 62.0
    vertex 51.0 7.99999999999991 62.0
  endloop
endfacet
facet normal 5.71302117540942e-016 -1.0 -1.47604061445157e-015
  outer loop
    vertex 51.0 3.99999999999993 60.0
    vertex 4.19999999999999 3.99999999999999 4.00000000000002
    vertex 51.0 4.00000000000001 4.00000000000002
  endloop
endfacet
facet normal 5.71302117540942e-016 -1.0 -1.47604061445157e-015
  outer loop
    vertex 4.19999999999999 3.99999999999999 4.00000000000002
    vertex 51.0 3.99999999999993 60.0
    vertex 4.2 3.9999999999999 60.0
  endloop
endfacet
facet normal 5.71302117540942e-016 -1.0 -1.47604061445157e-015
  outer loop
    vertex 51.1000000000001 4.00000000000002 4.00000000000002
    vertex 4.1 3.99999999999998 -1.12798659301916e-014
    vertex 51.1 4.00000000000001 -1.12798659301916e-014
  endloop
endfacet
facet normal 5.71302117540942e-016 -1.0 -1.47604061445157e-015
  outer loop
    vertex 4.1 3.99999999999998 -1.12798659301916e-014
    vertex 51.1000000000001 4.00000000000002 4.00000000000002
    vertex 4.1 3.99999999999999 4.00000000000002
  endloop
endfacet
facet normal 5.71302117540942e-016 -1.0 -1.47604061445157e-015
  outer loop
    vertex 4.1 3.99999999999999 4.00000000000002
    vertex 51.1000000000001 4.00000000000002 4.00000000000002
    vertex 51.0 4.00000000000001 4.00000000000002
  endloop
endfacet
facet normal 5.71302117540942e-016 -1.0 -1.47604061445157e-015
  outer loop
    vertex 4.1 3.99999999999999 4.00000000000002
    vertex 51.0 4.00000000000001 4.00000000000002
    vertex 4.19999999999999 3.99999999999999 4.00000000000002
  endloop
endfacet
facet normal 2.87610046841668e-016 -0.707106781186542 -0.707106781186553
  outer loop
    vertex 51.0 3.99999999999993 60.0
    vertex 4.2 1.99999999999988 62.0
    vertex 4.2 3.9999999999999 60.0
  endloop
endfacet
facet normal 2.87610046841668e-016 -0.707106781186542 -0.707106781186553
  outer loop
    vertex 4.2 1.99999999999988 62.0
    vertex 51.0 3.99999999999993 60.0
    vertex 51.0 1.99999999999989 62.0
  endloop
endfacet
facet normal 0.0 0.0 1.0
  outer loop
    vertex 4.2 1.99999999999988 62.0
    vertex 51.0 7.99999999999991 62.0
    vertex 4.19999999999999 7.99999999999991 62.0
  endloop
endfacet
facet normal 0.0 0.0 1.0
  outer loop
    vertex 51.0 7.99999999999991 62.0
    vertex 4.2 1.99999999999988 62.0
    vertex 51.0 1.99999999999989 62.0
  endloop
endfacet
facet normal -1.0 3.94795307556708e-014 4.00165506539685e-029
  outer loop
    vertex 51.1000000000001 4.00000000000002 4.00000000000002
    vertex 51.1 2.00000000000003 1.12798659301916e-014
    vertex 51.1 2.00000000000001 4.0
  endloop
endfacet
facet normal -1.0 3.94795307556708e-014 4.00165506539685e-029
  outer loop
    vertex 51.1 2.00000000000003 1.12798659301916e-014
    vertex 51.1000000000001 4.00000000000002 4.00000000000002
    vertex 51.1 4.00000000000001 -1.12798659301916e-014
  endloop
endfacet
facet normal 1.0 7.69081767967602e-015 6.763757245965e-017
  outer loop
    vertex 51.0 6.00000000000002 4.0
    vertex 51.0000000000001 5.99999999999993 60.0
    vertex 51.0 4.00000000000001 4.00000000000002
  endloop
endfacet
facet normal 1.0 7.69081767967602e-015 6.763757245965e-017
  outer loop
    vertex 51.0 3.99999999999993 60.0
    vertex 51.0 7.99999999999991 62.0
    vertex 51.0 1.99999999999989 62.0
  endloop
endfacet
facet normal 1.0 7.69081767967602e-015 6.763757245965e-017
  outer loop
    vertex 51.0 7.99999999999991 62.0
    vertex 51.0 3.99999999999993 60.0
    vertex 51.0000000000001 5.99999999999993 60.0
  endloop
endfacet
facet normal 1.0 7.69081767967602e-015 6.763757245965e-017
  outer loop
    vertex 51.0000000000001 5.99999999999993 60.0
    vertex 51.0 3.99999999999993 60.0
    vertex 51.0 4.00000000000001 4.00000000000002
  endloop
endfacet
facet normal -1.0 -1.28180294661267e-015 3.18677024088648e-017
  outer loop
    vertex 4.19999999999999 7.99999999999991 62.0
    vertex 4.2 3.9999999999999 60.0
    vertex 4.2 1.99999999999988 62.0
  endloop
endfacet
facet normal -1.0 -1.28180294661267e-015 3.18677024088648e-017
  outer loop
    vertex 4.2 3.9999999999999 60.0
    vertex 4.19999999999999 7.99999999999991 62.0
    vertex 4.19999999999999 5.99999999999991 60.0
  endloop
endfacet
facet normal -1.0 -1.28180294661267e-015 3.18677024088648e-017
  outer loop
    vertex 4.2 3.9999999999999 60.0
    vertex 4.19999999999999 5.99999999999991 60.0
    vertex 4.19999999999999 3.99999999999999 4.00000000000002
  endloop
endfacet
facet normal -1.0 -1.28180294661267e-015 3.18677024088648e-017
  outer loop
    vertex 4.19999999999999 6.0 4.0
    vertex 4.19999999999999 3.99999999999999 4.00000000000002
    vertex 4.19999999999999 5.99999999999991 60.0
  endloop
endfacet
facet normal -1.0 -9.02389274415331e-015 -1.12798659301916e-014
  outer loop
    vertex 53.1999999999992 9.9999999999999 64.0
    vertex 53.2 2.96096480667529e-014 4.00000000000003
    vertex 53.1999999999993 -6.90891788224235e-014 64.0
  endloop
endfacet
facet normal -1.0 -9.02389274415331e-015 -1.12798659301916e-014
  outer loop
    vertex 53.2 2.96096480667529e-014 4.00000000000003
    vertex 53.1999999999992 9.9999999999999 64.0
    vertex 53.1999999999999 9.99999999999999 4.00000000000002
  endloop
endfacet
facet normal 1.0 3.52495810318487e-016 2.34997206878998e-017
  outer loop
    vertex 2.0 5.63993296509579e-015 4.0
    vertex 1.99999999999999 9.99999999999991 64.0
    vertex 2.0 -1.0715872633682e-013 64.0
  endloop
endfacet
facet normal 1.0 3.52495810318487e-016 2.34997206878998e-017
  outer loop
    vertex 1.99999999999999 9.99999999999991 64.0
    vertex 2.0 5.63993296509579e-015 4.0
    vertex 2.0 10.0 4.0
  endloop
endfacet
endsolid AAA_Divider_Loose
