solid AAA_Divider_Tight
facet normal 0.0 0.0 1.0
  outer loop
    vertex 1.99999999999999 -1.0715872633682e-013 64.0
    vertex 4.22994972382185e-015 9.99999999999991 64.0
    vertex 0.0 -1.0715872633682e-013 64.0
  endloop
endfacet
facet normal 0.0 0.0 1.0
  outer loop
    vertex 4.22994972382185e-015 9.99999999999991 64.0
    vertex 1.99999999999999 -1.0715872633682e-013 64.0
    vertex 2.0 9.99999999999991 64.0
  endloop
endfacet
facet normal 7.29413963153269e-016 1.0 1.56628623337822e-015
  outer loop
    vertex 4.22994972382185e-015 9.99999999999991 64.0
    vertex 2.0 10.0 2.25597318603832e-014
    vertex 4.22994972382185e-015 10.0 2.25597318603832e-014
  endloop
endfacet
facet normal 7.29413963153269e-016 1.0 1.56628623337822e-015
  outer loop
    vertex 2.0 10.0 2.25597318603832e-014
    vertex 4.22994972382185e-015 9.99999999999991 64.0
    vertex 2.0 10.0 4.0
  endloop
endfacet
facet normal 7.29413963153269e-016 1.0 1.56628623337822e-015
  outer loop
    vertex 2.0 10.0 4.0
    vertex 4.22994972382185e-015 9.99999999999991 64.0
    vertex 2.0 9.99999999999991 64.0
  endloop
endfacet
facet normal -1.0 4.22994972382184e-016 6.90319280145884e-031
  outer loop
    vertex 4.22994972382185e-015 9.99999999999991 64.0
    vertex 0.0 0.0 0.0
    vertex 0.0 -1.0715872633682e-013 64.0
  endloop
endfacet
facet normal -1.0 4.22994972382184e-016 6.90319280145884e-031
  outer loop
    vertex 0.0 0.0 0.0
    vertex 4.22994972382185e-015 9.99999999999991 64.0
    vertex 4.22994972382185e-015 10.0 2.25597318603832e-014
  endloop
endfacet
facet normal 1.05998740124141e-015 1.0 1.55031332689837e-015
  outer loop
    vertex 4.0 6.0 4.0
    vertex 51.0 5.99999999999996 0.0
    vertex 4.0 6.0 0.0
  endloop
endfacet
facet normal 1.05998740124141e-015 1.0 1.55031332689837e-015
  outer loop
    vertex 51.0 5.99999999999996 0.0
    vertex 4.0 6.0 4.0
    vertex 51.0 5.99999999999996 4.0
  endloop
endfacet
facet normal 1.05998740124141e-015 1.0 1.55031332689837e-015
  outer loop
    vertex 51.0 5.99999999999996 4.0
    vertex 4.0 6.0 4.0
    vertex 4.0 5.99999999999992 60.0
  endloop
endfacet
facet normal 1.05998740124141e-015 1.0 1.55031332689837e-015
  outer loop
    vertex 51.0 5.99999999999996 4.0
    vertex 4.0 5.99999999999992 60.0
    vertex 51.0 5.99999999999986 60.0
  endloop
endfacet
facet normal -0.707106781186548 0.707106781186547 1.75586475575573e-015
  outer loop
    vertex 53.0 9.99999999999997 4.00000000000002
    vertex 51.0 7.99999999999999 4.51194637207664e-014
    vertex 50.9999999999999 7.99999999999994 4.00000000000002
  endloop
endfacet
facet normal -0.707106781186548 0.707106781186547 1.75586475575573e-015
  outer loop
    vertex 51.0 7.99999999999999 4.51194637207664e-014
    vertex 53.0 9.99999999999997 4.00000000000002
    vertex 53.0 9.99999999999999 4.51194637207664e-014
  endloop
endfacet
facet normal -1.12798659301918e-014 -2.25597318603836e-015 1.0
  outer loop
    vertex 52.9999999999993 -1.24078525232107e-013 64.0
    vertex 54.9999999999992 9.9999999999999 64.0
    vertex 52.9999999999993 9.99999999999988 64.0
  endloop
endfacet
facet normal -1.12798659301918e-014 -2.25597318603836e-015 1.0
  outer loop
    vertex 54.9999999999992 9.9999999999999 64.0
    vertex 52.9999999999993 -1.24078525232107e-013 64.0
    vertex 54.9999999999993 -1.29718458197203e-013 64.0
  endloop
endfacet
facet normal 1.0 4.51194637207657e-015 1.09273701198731e-014
  outer loop
    vertex 55.0 -1.69197988952874e-014 3.38395977905748e-014
    vertex 54.9999999999992 9.9999999999999 64.0
    vertex 54.9999999999993 -1.29718458197203e-013 64.0
  endloop
endfacet
facet normal 1.0 4.51194637207657e-015 1.09273701198731e-014
  outer loop
    vertex 54.9999999999992 9.9999999999999 64.0
    vertex 55.0 -1.69197988952874e-014 3.38395977905748e-014
    vertex 54.9999999999999 10.0 7.89590615113411e-014
  endloop
endfacet
facet normal -1.0 2.2276441592486e-028 -5.63993296509579e-015
  outer loop
    vertex 50.9999999999999 7.99999999999994 4.00000000000002
    vertex 51.0 5.99999999999996 0.0
    vertex 51.0 5.99999999999996 4.0
  endloop
endfacet
facet normal -1.0 2.2276441592486e-028 -5.63993296509579e-015
  outer loop
    vertex 51.0 5.99999999999996 0.0
    vertex 50.9999999999999 7.99999999999994 4.00000000000002
    vertex 51.0 7.99999999999999 4.51194637207664e-014
  endloop
endfacet
facet normal 1.0 -1.40998324127395e-015 -7.9562880239782e-030
  outer loop
    vertex 4.0 8.00000000000003 1.12798659301916e-014
    vertex 4.0 6.0 4.0
    vertex 4.0 6.0 0.0
  endloop
endfacet
facet normal 1.0 -1.40998324127395e-015 -7.9562880239782e-030
  outer loop
    vertex 4.0 6.0 4.0
    vertex 4.0 8.00000000000003 1.12798659301916e-014
    vertex 4.0 7.99999999999998 3.99999999999998
  endloop
endfacet
facet normal 0.707106781186549 0.707106781186546 4.98319363781381e-015
  outer loop
    vertex 4.0 8.00000000000003 1.12798659301916e-014
    vertex 2.0 10.0 4.0
    vertex 4.0 7.99999999999998 3.99999999999998
  endloop
endfacet
facet normal 0.707106781186549 0.707106781186546 4.98319363781381e-015
  outer loop
    vertex 2.0 10.0 4.0
    vertex 4.0 8.00000000000003 1.12798659301916e-014
    vertex 2.0 10.0 2.25597318603832e-014
  endloop
endfacet
facet normal -5.63993296509578e-015 4.83422825579624e-016 1.0
  outer loop
    vertex 53.0 0.0 4.00000000000003
    vertex 51.0 3.99999999999996 4.00000000000002
    vertex 50.9999999999999 1.99999999999995 4.0
  endloop
endfacet
facet normal -5.63993296509578e-015 4.83422825579624e-016 1.0
  outer loop
    vertex 51.0 3.99999999999996 4.00000000000002
    vertex 53.0 0.0 4.00000000000003
    vertex 53.0 9.99999999999997 4.00000000000002
  endloop
endfacet
facet normal -5.63993296509578e-015 4.83422825579624e-016 1.0
  outer loop
    vertex 51.0 5.99999999999996 4.0
    vertex 53.0 9.99999999999997 4.00000000000002
    vertex 50.9999999999999 7.99999999999994 4.00000000000002
  endloop
endfacet
facet normal -5.63993296509578e-015 4.83422825579624e-016 1.0
  outer loop
    vertex 53.0 9.99999999999997 4.00000000000002
    vertex 51.0 5.99999999999996 4.0
    vertex 51.0 3.99999999999996 4.00000000000002
  endloop
endfacet
facet normal -4.7183965741477e-015 -1.0 -1.80888150237344e-015
  outer loop
    vertex 55.0 -1.69197988952874e-014 3.38395977905748e-014
    vertex 53.0 0.0 4.00000000000003
    vertex 53.0 -1.69197988952874e-014 2.25597318603832e-014
  endloop
endfacet
facet normal -4.7183965741477e-015 -1.0 -1.80888150237344e-015
  outer loop
    vertex 53.0 0.0 4.00000000000003
    vertex 55.0 -1.69197988952874e-014 3.38395977905748e-014
    vertex 54.9999999999993 -1.29718458197203e-013 64.0
  endloop
endfacet
facet normal -4.7183965741477e-015 -1.0 -1.80888150237344e-015
  outer loop
    vertex 53.0 0.0 4.00000000000003
    vertex 54.9999999999993 -1.29718458197203e-013 64.0
    vertex 52.9999999999993 -1.24078525232107e-013 64.0
  endloop
endfacet
facet normal 1.40998324127395e-015 1.12798659301915e-015 1.0
  outer loop
    vertex 3.99999999999999 2.00000000000001 4.0
    vertex 2.0 10.0 4.0
    vertex 1.99999999999999 5.63993296509579e-015 4.0
  endloop
endfacet
facet normal 1.40998324127395e-015 1.12798659301915e-015 1.0
  outer loop
    vertex 2.0 10.0 4.0
    vertex 3.99999999999999 2.00000000000001 4.0
    vertex 4.0 6.0 4.0
  endloop
endfacet
facet normal 1.40998324127395e-015 1.12798659301915e-015 1.0
  outer loop
    vertex 2.0 10.0 4.0
    vertex 4.0 6.0 4.0
    vertex 4.0 7.99999999999998 3.99999999999998
  endloop
endfacet
facet normal 1.40998324127395e-015 1.12798659301915e-015 1.0
  outer loop
    vertex 4.0 6.0 4.0
    vertex 3.99999999999999 2.00000000000001 4.0
    vertex 4.0 4.00000000000001 4.00000000000002
  endloop
endfacet
facet normal 4.40795238709699e-016 2.86696592392371e-015 -1.0
  outer loop
    vertex 4.22994972382185e-015 10.0 2.25597318603832e-014
    vertex 1.99999999999999 -5.63993296509579e-015 0.0
    vertex 0.0 0.0 0.0
  endloop
endfacet
facet normal 4.40795238709699e-016 2.86696592392371e-015 -1.0
  outer loop
    vertex 1.99999999999999 -5.63993296509579e-015 0.0
    vertex 4.22994972382185e-015 10.0 2.25597318603832e-014
    vertex 2.0 10.0 2.25597318603832e-014
  endloop
endfacet
facet normal 4.40795238709699e-016 2.86696592392371e-015 -1.0
  outer loop
    vertex 1.99999999999999 -5.63993296509579e-015 0.0
    vertex 2.0 10.0 2.25597318603832e-014
    vertex 3.99999999999999 2.0 1.12798659301916e-014
  endloop
endfacet
facet normal 4.40795238709699e-016 2.86696592392371e-015 -1.0
  outer loop
    vertex 3.99999999999999 2.0 1.12798659301916e-014
    vertex 2.0 10.0 2.25597318603832e-014
    vertex 4.0 6.0 0.0
  endloop
endfacet
facet normal 4.40795238709699e-016 2.86696592392371e-015 -1.0
  outer loop
    vertex 4.0 6.0 0.0
    vertex 2.0 10.0 2.25597318603832e-014
    vertex 4.0 8.00000000000003 1.12798659301916e-014
  endloop
endfacet
facet normal 4.40795238709699e-016 2.86696592392371e-015 -1.0
  outer loop
    vertex 3.99999999999999 2.0 1.12798659301916e-014
    vertex 4.0 6.0 0.0
    vertex 3.99999999999999 3.99999999999999 -1.12798659301916e-014
  endloop
endfacet
facet normal 4.40795238709699e-016 2.86696592392371e-015 -1.0
  outer loop
    vertex 4.0 6.0 0.0
    vertex 51.0 3.99999999999995 -1.12798659301916e-014
    vertex 3.99999999999999 3.99999999999999 -1.12798659301916e-014
  endloop
endfacet
facet normal 4.40795238709699e-016 2.86696592392371e-015 -1.0
  outer loop
    vertex 51.0 3.99999999999995 -1.12798659301916e-014
    vertex 4.0 6.0 0.0
    vertex 51.0 5.99999999999996 0.0
  endloop
endfacet
facet normal 4.40795238709699e-016 2.86696592392371e-015 -1.0
  outer loop
    vertex 51.0 3.99999999999995 -1.12798659301916e-014
    vertex 51.0 5.99999999999996 0.0
    vertex 51.0 7.99999999999999 4.51194637207664e-014
  endloop
endfacet
facet normal 4.40795238709699e-016 2.86696592392371e-015 -1.0
  outer loop
    vertex 51.0 3.99999999999995 -1.12798659301916e-014
    vertex 51.0 7.99999999999999 4.51194637207664e-014
    vertex 53.0 9.99999999999999 4.51194637207664e-014
  endloop
endfacet
facet normal 4.40795238709699e-016 2.86696592392371e-015 -1.0
  outer loop
    vertex 51.0 3.99999999999995 -1.12798659301916e-014
    vertex 53.0 -1.69197988952874e-014 2.25597318603832e-014
    vertex 51.0 1.99999999999997 1.12798659301916e-014
  endloop
endfacet
facet normal 4.40795238709699e-016 2.86696592392371e-015 -1.0
  outer loop
    vertex 53.0 -1.69197988952874e-014 2.25597318603832e-014
    vertex 51.0 3.99999999999995 -1.12798659301916e-014
    vertex 53.0 9.99999999999999 4.51194637207664e-014
  endloop
endfacet
facet normal 4.40795238709699e-016 2.86696592392371e-015 -1.0
  outer loop
    vertex 53.0 -1.69197988952874e-014 2.25597318603832e-014
    vertex 53.0 9.99999999999999 4.51194637207664e-014
    vertex 54.9999999999999 10.0 7.89590615113411e-014
  endloop
endfacet
facet normal 4.40795238709699e-016 2.86696592392371e-015 -1.0
  outer loop
    vertex 53.0 -1.69197988952874e-014 2.25597318603832e-014
    vertex 54.9999999999999 10.0 7.89590615113411e-014
    vertex 55.0 -1.69197988952874e-014 3.38395977905748e-014
  endloop
endfacet
facet normal 1.0 -1.05748743095547e-015 -1.76247905159241e-016
  outer loop
    vertex 3.99999999999999 3.99999999999999 -1.12798659301916e-014
    vertex 3.99999999999999 2.00000000000001 4.0
    vertex 3.99999999999999 2.0 1.12798659301916e-014
  endloop
endfacet
facet normal 1.0 -1.05748743095547e-015 -1.76247905159241e-016
  outer loop
    vertex 3.99999999999999 2.00000000000001 4.0
    vertex 3.99999999999999 3.99999999999999 -1.12798659301916e-014
    vertex 4.0 4.00000000000001 4.00000000000002
  endloop
endfacet
facet normal 0.707106781186549 -0.707106781186546 1.87951720334414e-015
  outer loop
    vertex 3.99999999999999 2.0 1.12798659301916e-014
    vertex 1.99999999999999 5.63993296509579e-015 4.0
    vertex 1.99999999999999 -5.63993296509579e-015 0.0
  endloop
endfacet
facet normal 0.707106781186549 -0.707106781186546 1.87951720334414e-015
  outer loop
    vertex 1.99999999999999 5.63993296509579e-015 4.0
    vertex 3.99999999999999 2.0 1.12798659301916e-014
    vertex 3.99999999999999 2.00000000000001 4.0
  endloop
endfacet
facet normal 1.01271313634227e-015 -1.0 -1.69653872679845e-015
  outer loop
    vertex 1.99999999999999 5.63993296509579e-015 4.0
    vertex 0.0 0.0 0.0
    vertex 1.99999999999999 -5.63993296509579e-015 0.0
  endloop
endfacet
facet normal 1.01271313634227e-015 -1.0 -1.69653872679845e-015
  outer loop
    vertex 0.0 0.0 0.0
    vertex 1.99999999999999 5.63993296509579e-015 4.0
    vertex 0.0 -1.0715872633682e-013 64.0
  endloop
endfacet
facet normal 1.01271313634227e-015 -1.0 -1.69653872679845e-015
  outer loop
    vertex 0.0 -1.0715872633682e-013 64.0
    vertex 1.99999999999999 5.63993296509579e-015 4.0
    vertex 1.99999999999999 -1.0715872633682e-013 64.0
  endloop
endfacet
facet normal -0.707106781186532 -0.707106781186563 -3.47463377723492e-015
  outer loop
    vertex 53.0 -1.69197988952874e-014 2.25597318603832e-014
    vertex 50.9999999999999 1.99999999999995 4.0
    vertex 51.0 1.99999999999997 1.12798659301916e-014
  endloop
endfacet
facet normal -0.707106781186532 -0.707106781186563 -3.47463377723492e-015
  outer loop
    vertex 50.9999999999999 1.99999999999995 4.0
    vertex 53.0 -1.69197988952874e-014 2.25597318603832e-014
    vertex 53.0 0.0 4.00000000000003
  endloop
endfacet
facet normal -1.38067643025443e-014 1.0 1.64932219793347e-015
  outer loop
    vertex 53.0 9.99999999999997 4.00000000000002
    vertex 54.9999999999999 10.0 7.89590615113411e-014
    vertex 53.0 9.99999999999999 4.51194637207664e-014
  endloop
endfacet
facet normal -1.38067643025443e-014 1.0 1.64932219793347e-015
  outer loop
    vertex 54.9999999999999 10.0 7.89590615113411e-014
    vertex 53.0 9.99999999999997 4.00000000000002
    vertex 54.9999999999992 9.9999999999999 64.0
  endloop
endfacet
facet normal -1.38067643025443e-014 1.0 1.64932219793347e-015
  outer loop
    vertex 54.9999999999992 9.9999999999999 64.0
    vertex 53.0 9.99999999999997 4.00000000000002
    vertex 52.9999999999993 9.99999999999988 64.0
  endloop
endfacet
facet normal 7.63790365257863e-016 0.707106781186547 -0.707106781186548
  outer loop
    vertex 4.0 7.99999999999991 62.0
    vertex 51.0 5.99999999999986 60.0
    vertex 4.0 5.99999999999992 60.0
  endloop
endfacet
facet normal 7.63790365257863e-016 0.707106781186547 -0.707106781186548
  outer loop
    vertex 51.0 5.99999999999986 60.0
    vertex 4.0 7.99999999999991 62.0
    vertex 51.0 7.99999999999987 62.0
  endloop
endfacet
facet normal -9.39988827515966e-016 -1.0 -1.427524501977e-015
  outer loop
    vertex 51.0 3.99999999999996 4.00000000000002
    vertex 3.99999999999999 3.99999999999999 -1.12798659301916e-014
    vertex 51.0 3.99999999999995 -1.12798659301916e-014
  endloop
endfacet
facet normal -9.39988827515966e-016 -1.0 -1.427524501977e-015
  outer loop
    vertex 3.99999999999999 3.99999999999999 -1.12798659301916e-014
    vertex 51.0 3.99999999999996 4.00000000000002
    vertex 4.0 4.00000000000001 4.00000000000002
  endloop
endfacet
facet normal -9.39988827515966e-016 -1.0 -1.427524501977e-015
  outer loop
    vertex 4.0 4.00000000000001 4.00000000000002
    vertex 51.0 3.99999999999996 4.00000000000002
    vertex 51.0 3.99999999999987 60.0
  endloop
endfacet
facet normal -9.39988827515966e-016 -1.0 -1.427524501977e-015
  outer loop
    vertex 4.0 4.00000000000001 4.00000000000002
    vertex 51.0 3.99999999999987 60.0
    vertex 4.0 3.99999999999992 60.0
  endloop
endfacet
facet normal -7.65223367819316e-016 -0.707106781186541 -0.707106781186554
  outer loop
    vertex 4.0 3.99999999999992 60.0
    vertex 51.0 1.99999999999983 62.0
    vertex 3.99999999999999 1.99999999999989 62.0
  endloop
endfacet
facet normal -7.65223367819316e-016 -0.707106781186541 -0.707106781186554
  outer loop
    vertex 51.0 1.99999999999983 62.0
    vertex 4.0 3.99999999999992 60.0
    vertex 51.0 3.99999999999987 60.0
  endloop
endfacet
facet normal 0.0 0.0 1.0
  outer loop
    vertex 51.0 1.99999999999983 62.0
    vertex 4.0 7.99999999999991 62.0
    vertex 3.99999999999999 1.99999999999989 62.0
  endloop
endfacet
facet normal 0.0 0.0 1.0
  outer loop
    vertex 4.0 7.99999999999991 62.0
    vertex 51.0 1.99999999999983 62.0
    vertex 51.0 7.99999999999987 62.0
  endloop
endfacet
facet normal 1.0 -8.45989944764369e-016 -1.43073528903795e-030
  outer loop
    vertex 1.99999999999999 5.63993296509579e-015 4.0
    vertex 2.0 9.99999999999991 64.0
    vertex 1.99999999999999 -1.0715872633682e-013 64.0
  endloop
endfacet
facet normal 1.0 -8.45989944764369e-016 -1.43073528903795e-030
  outer loop
    vertex 2.0 9.99999999999991 64.0
    vertex 1.99999999999999 5.63993296509579e-015 4.0
    vertex 2.0 10.0 4.0
  endloop
endfacet
facet normal -1.0 -2.81996648254791e-015 -1.118586704744e-014
  outer loop
    vertex 52.9999999999993 9.99999999999988 64.0
    vertex 53.0 0.0 4.00000000000003
    vertex 52.9999999999993 -1.24078525232107e-013 64.0
  endloop
endfacet
facet normal -1.0 -2.81996648254791e-015 -1.118586704744e-014
  outer loop
    vertex 53.0 0.0 4.00000000000003
    vertex 52.9999999999993 9.99999999999988 64.0
    vertex 53.0 9.99999999999997 4.00000000000002
  endloop
endfacet
facet normal 1.0 1.53816353593518e-015 -9.3652023405647e-017
  outer loop
    vertex 51.0 5.99999999999996 4.0
    vertex 51.0 5.99999999999986 60.0
    vertex 51.0 3.99999999999996 4.00000000000002
  endloop
endfacet
facet normal 1.0 1.53816353593518e-015 -9.3652023405647e-017
  outer loop
    vertex 51.0 3.99999999999987 60.0
    vertex 51.0 7.99999999999987 62.0
    vertex 51.0 1.99999999999983 62.0
  endloop
endfacet
facet normal 1.0 1.53816353593518e-015 -9.3652023405647e-017
  outer loop
    vertex 51.0 7.99999999999987 62.0
    vertex 51.0 3.99999999999987 60.0
    vertex 51.0 5.99999999999986 60.0
  endloop
endfacet
facet normal 1.0 1.53816353593518e-015 -9.3652023405647e-017
  outer loop
    vertex 51.0 5.99999999999986 60.0
    vertex 51.0 3.99999999999987 60.0
    vertex 51.0 3.99999999999996 4.00000000000002
  endloop
endfacet
facet normal -1.0 5.76811325975704e-016 6.50361273650444e-018
  outer loop
    vertex 4.0 7.99999999999991 62.0
    vertex 4.0 3.99999999999992 60.0
    vertex 3.99999999999999 1.99999999999989 62.0
  endloop
endfacet
facet normal -1.0 5.76811325975704e-016 6.50361273650444e-018
  outer loop
    vertex 4.0 3.99999999999992 60.0
    vertex 4.0 7.99999999999991 62.0
    vertex 4.0 5.99999999999992 60.0
  endloop
endfacet
facet normal -1.0 5.76811325975704e-016 6.50361273650444e-018
  outer loop
    vertex 4.0 3.99999999999992 60.0
    vertex 4.0 5.99999999999992 60.0
    vertex 4.0 4.00000000000001 4.00000000000002
  endloop
endfacet
facet normal -1.0 5.76811325975704e-016 6.50361273650444e-018
  outer loop
    vertex 4.0 6.0 4.0
    vertex 4.0 4.00000000000001 4.00000000000002
    vertex 4.0 5.99999999999992 60.0
  endloop
endfacet
facet normal -1.0 2.53796983429312e-014 -4.22994972382181e-015
  outer loop
    vertex 51.0 3.99999999999996 4.00000000000002
    vertex 51.0 1.99999999999997 1.12798659301916e-014
    vertex 50.9999999999999 1.99999999999995 4.0
  endloop
endfacet
facet normal -1.0 2.53796983429312e-014 -4.22994972382181e-015
  outer loop
    vertex 51.0 1.99999999999997 1.12798659301916e-014
    vertex 51.0 3.99999999999996 4.00000000000002
    vertex 51.0 3.99999999999995 -1.12798659301916e-014
  endloop
endfacet
endsolid AAA_Divider_Tight
