solid AAA_Divider_Normal
facet normal 0.0 0.0 1.0
  outer loop
    vertex 1.59791751462282e-016 -1.01518793371724e-013 64.0
    vertex 2.0 9.99999999999991 64.0
    vertex -5.45199869174693e-016 9.99999999999991 64.0
  endloop
endfacet
facet normal 0.0 0.0 1.0
  outer loop
    vertex 2.0 9.99999999999991 64.0
    vertex 1.59791751462282e-016 -1.01518793371724e-013 64.0
    vertex 1.99999999999999 -1.0010881013045e-013 64.0
  endloop
endfacet
facet normal 7.29413963153269e-016 1.0 1.56628623337822e-015
  outer loop
    vertex -5.45199869174693e-016 9.99999999999991 64.0
    vertex 2.0 10.0 2.25597318603832e-014
    vertex -5.45199869174693e-016 10.0 2.25597318603832e-014
  endloop
endfacet
facet normal 7.29413963153269e-016 1.0 1.56628623337822e-015
  outer loop
    vertex 2.0 10.0 2.25597318603832e-014
    vertex -5.45199869174693e-016 9.99999999999991 64.0
    vertex 2.0 10.0 4.0
  endloop
endfacet
facet normal 7.29413963153269e-016 1.0 1.56628623337822e-015
  outer loop
    vertex 2.0 10.0 4.0
    vertex -5.45199869174693e-016 9.99999999999991 64.0
    vertex 2.0 9.99999999999991 64.0
  endloop
endfacet
facet normal -1.0 -7.04991620636974e-017 -1.1166294275374e-031
  outer loop
    vertex -5.45199869174693e-016 9.99999999999991 64.0
    vertex 1.59791751462282e-016 0.0 0.0
    vertex 1.59791751462282e-016 -1.01518793371724e-013 64.0
  endloop
endfacet
facet normal -1.0 -7.04991620636974e-017 -1.1166294275374e-031
  outer loop
    vertex 1.59791751462282e-016 0.0 0.0
    vertex -5.45199869174693e-016 9.99999999999991 64.0
    vertex -5.45199869174693e-016 10.0 2.25597318603832e-014
  endloop
endfacet
facet normal -1.20253887518295e-016 1.0 1.5990439989892e-015
  outer loop
    vertex 4.09999999999999 5.99999999999991 60.0
    vertex 50.9 6.00000000000001 4.0
    vertex 4.09999999999999 6.0 4.0
  endloop
endfacet
facet normal -1.20253887518295e-016 1.0 1.5990439989892e-015
  outer loop
    vertex 50.9 6.00000000000001 4.0
    vertex 4.09999999999999 5.99999999999991 60.0
    vertex 50.9 5.99999999999992 60.0
  endloop
endfacet
facet normal -1.20253887518295e-016 1.0 1.5990439989892e-015
  outer loop
    vertex 3.99999999999999 6.0 4.0
    vertex 51.0 6.00000000000001 0.0
    vertex 3.99999999999999 6.0 0.0
  endloop
endfacet
facet normal -1.20253887518295e-016 1.0 1.5990439989892e-015
  outer loop
    vertex 51.0 6.00000000000001 0.0
    vertex 3.99999999999999 6.0 4.0
    vertex 51.0 6.00000000000001 4.0
  endloop
endfacet
facet normal -1.20253887518295e-016 1.0 1.5990439989892e-015
  outer loop
    vertex 51.0 6.00000000000001 4.0
    vertex 3.99999999999999 6.0 4.0
    vertex 4.09999999999999 6.0 4.0
  endloop
endfacet
facet normal -1.20253887518295e-016 1.0 1.5990439989892e-015
  outer loop
    vertex 51.0 6.00000000000001 4.0
    vertex 4.09999999999999 6.0 4.0
    vertex 50.9 6.00000000000001 4.0
  endloop
endfacet
facet normal -0.707106781186553 0.707106781186542 4.94609790353625e-016
  outer loop
    vertex 52.9999999999999 10.0 4.00000000000002
    vertex 51.0 8.00000000000004 4.51194637207664e-014
    vertex 51.0 7.99999999999999 4.00000000000002
  endloop
endfacet
facet normal -0.707106781186553 0.707106781186542 4.94609790353625e-016
  outer loop
    vertex 51.0 8.00000000000004 4.51194637207664e-014
    vertex 52.9999999999999 10.0 4.00000000000002
    vertex 53.0 10.0 4.51194637207664e-014
  endloop
endfacet
facet normal -1.12798659301917e-014 -2.25597318603837e-015 1.0
  outer loop
    vertex 52.9999999999993 -7.19091453049714e-014 64.0
    vertex 54.9999999999993 9.99999999999994 64.0
    vertex 52.9999999999993 9.99999999999991 64.0
  endloop
endfacet
facet normal -1.12798659301917e-014 -2.25597318603837e-015 1.0
  outer loop
    vertex 54.9999999999993 9.99999999999994 64.0
    vertex 52.9999999999993 -7.19091453049714e-014 64.0
    vertex 54.9999999999993 -8.03690447526151e-014 64.0
  endloop
endfacet
facet normal 1.0 2.81996648254784e-015 1.10154940724527e-014
  outer loop
    vertex 55.0 3.24296145493008e-014 3.38395977905748e-014
    vertex 54.9999999999993 9.99999999999994 64.0
    vertex 54.9999999999993 -8.03690447526151e-014 64.0
  endloop
endfacet
facet normal 1.0 2.81996648254784e-015 1.10154940724527e-014
  outer loop
    vertex 54.9999999999993 9.99999999999994 64.0
    vertex 55.0 3.24296145493008e-014 3.38395977905748e-014
    vertex 55.0 10.0 7.89590615113411e-014
  endloop
endfacet
facet normal -1.0 -1.12798659301914e-014 -5.63993296509585e-015
  outer loop
    vertex 51.0 7.99999999999999 4.00000000000002
    vertex 51.0 6.00000000000001 0.0
    vertex 51.0 6.00000000000001 4.0
  endloop
endfacet
facet normal -1.0 -1.12798659301914e-014 -5.63993296509585e-015
  outer loop
    vertex 51.0 6.00000000000001 0.0
    vertex 51.0 7.99999999999999 4.00000000000002
    vertex 51.0 8.00000000000004 4.51194637207664e-014
  endloop
endfacet
facet normal 1.0 7.04991620636975e-016 3.9781440119891e-030
  outer loop
    vertex 3.99999999999999 8.00000000000003 1.12798659301916e-014
    vertex 3.99999999999999 6.0 4.0
    vertex 3.99999999999999 6.0 0.0
  endloop
endfacet
facet normal 1.0 7.04991620636975e-016 3.9781440119891e-030
  outer loop
    vertex 3.99999999999999 6.0 4.0
    vertex 3.99999999999999 8.00000000000003 1.12798659301916e-014
    vertex 3.99999999999999 7.99999999999998 3.99999999999998
  endloop
endfacet
facet normal 0.707106781186549 0.707106781186546 4.99555888257266e-015
  outer loop
    vertex 3.99999999999999 8.00000000000003 1.12798659301916e-014
    vertex 2.0 10.0 4.0
    vertex 3.99999999999999 7.99999999999998 3.99999999999998
  endloop
endfacet
facet normal 0.707106781186549 0.707106781186546 4.99555888257266e-015
  outer loop
    vertex 2.0 10.0 4.0
    vertex 3.99999999999999 8.00000000000003 1.12798659301916e-014
    vertex 2.0 10.0 2.25597318603832e-014
  endloop
endfacet
facet normal -5.53557378714157e-015 6.26659218343959e-016 1.0
  outer loop
    vertex 53.0 4.08895139969445e-014 4.00000000000003
    vertex 51.0 4.00000000000001 4.00000000000002
    vertex 51.0 2.00000000000001 4.0
  endloop
endfacet
facet normal -5.53557378714157e-015 6.26659218343959e-016 1.0
  outer loop
    vertex 51.0 4.00000000000001 4.00000000000002
    vertex 53.0 4.08895139969445e-014 4.00000000000003
    vertex 51.0 6.00000000000001 4.0
  endloop
endfacet
facet normal -5.53557378714157e-015 6.26659218343959e-016 1.0
  outer loop
    vertex 51.0 6.00000000000001 4.0
    vertex 53.0 4.08895139969445e-014 4.00000000000003
    vertex 52.9999999999999 10.0 4.00000000000002
  endloop
endfacet
facet normal -5.53557378714157e-015 6.26659218343959e-016 1.0
  outer loop
    vertex 52.9999999999999 10.0 4.00000000000002
    vertex 51.0 7.99999999999999 4.00000000000002
    vertex 51.0 6.00000000000001 4.0
  endloop
endfacet
facet normal -5.53557378714157e-015 6.26659218343959e-016 1.0
  outer loop
    vertex 51.0 4.00000000000001 4.00000000000002
    vertex 50.9 6.00000000000001 4.0
    vertex 50.9 4.00000000000001 4.00000000000002
  endloop
endfacet
facet normal -5.53557378714157e-015 6.26659218343959e-016 1.0
  outer loop
    vertex 50.9 6.00000000000001 4.0
    vertex 51.0 4.00000000000001 4.00000000000002
    vertex 51.0 6.00000000000001 4.0
  endloop
endfacet
facet normal -3.6503261281018e-015 -1.0 -1.73561447482456e-015
  outer loop
    vertex 55.0 3.24296145493008e-014 3.38395977905748e-014
    vertex 53.0 4.08895139969445e-014 4.00000000000003
    vertex 53.0 2.96096480667529e-014 2.25597318603832e-014
  endloop
endfacet
facet normal -3.6503261281018e-015 -1.0 -1.73561447482456e-015
  outer loop
    vertex 53.0 4.08895139969445e-014 4.00000000000003
    vertex 55.0 3.24296145493008e-014 3.38395977905748e-014
    vertex 54.9999999999993 -8.03690447526151e-014 64.0
  endloop
endfacet
facet normal -3.6503261281018e-015 -1.0 -1.73561447482456e-015
  outer loop
    vertex 53.0 4.08895139969445e-014 4.00000000000003
    vertex 54.9999999999993 -8.03690447526151e-014 64.0
    vertex 52.9999999999993 -7.19091453049714e-014 64.0
  endloop
endfacet
facet normal -1.8149422252923e-016 1.25331843668795e-015 1.0
  outer loop
    vertex 3.99999999999999 2.00000000000001 4.0
    vertex 2.0 10.0 4.0
    vertex 2.0 1.12798659301916e-014 4.0
  endloop
endfacet
facet normal -1.8149422252923e-016 1.25331843668795e-015 1.0
  outer loop
    vertex 2.0 10.0 4.0
    vertex 3.99999999999999 2.00000000000001 4.0
    vertex 3.99999999999999 7.99999999999998 3.99999999999998
  endloop
endfacet
facet normal -1.8149422252923e-016 1.25331843668795e-015 1.0
  outer loop
    vertex 3.99999999999999 7.99999999999998 3.99999999999998
    vertex 3.99999999999999 2.00000000000001 4.0
    vertex 3.99999999999999 4.00000000000001 4.00000000000002
  endloop
endfacet
facet normal -1.8149422252923e-016 1.25331843668795e-015 1.0
  outer loop
    vertex 3.99999999999999 4.00000000000001 4.00000000000002
    vertex 3.99999999999999 6.0 4.0
    vertex 3.99999999999999 7.99999999999998 3.99999999999998
  endloop
endfacet
facet normal -1.8149422252923e-016 1.25331843668795e-015 1.0
  outer loop
    vertex 3.99999999999999 6.0 4.0
    vertex 3.99999999999999 4.00000000000001 4.00000000000002
    vertex 4.09999999999999 4.00000000000001 4.00000000000002
  endloop
endfacet
facet normal -1.8149422252923e-016 1.25331843668795e-015 1.0
  outer loop
    vertex 3.99999999999999 6.0 4.0
    vertex 4.09999999999999 4.00000000000001 4.00000000000002
    vertex 4.09999999999999 6.0 4.0
  endloop
endfacet
facet normal 4.40795238709696e-016 2.8669659239237e-015 -1.0
  outer loop
    vertex 53.0 10.0 4.51194637207664e-014
    vertex 51.0 6.00000000000001 0.0
    vertex 51.0 8.00000000000004 4.51194637207664e-014
  endloop
endfacet
facet normal 4.40795238709696e-016 2.8669659239237e-015 -1.0
  outer loop
    vertex 51.0 6.00000000000001 0.0
    vertex 53.0 10.0 4.51194637207664e-014
    vertex 51.0 4.0 -1.12798659301916e-014
  endloop
endfacet
facet normal 4.40795238709696e-016 2.8669659239237e-015 -1.0
  outer loop
    vertex 51.0 4.0 -1.12798659301916e-014
    vertex 53.0 2.96096480667529e-014 2.25597318603832e-014
    vertex 51.0 2.00000000000003 1.12798659301916e-014
  endloop
endfacet
facet normal 4.40795238709696e-016 2.8669659239237e-015 -1.0
  outer loop
    vertex 53.0 2.96096480667529e-014 2.25597318603832e-014
    vertex 51.0 4.0 -1.12798659301916e-014
    vertex 53.0 10.0 4.51194637207664e-014
  endloop
endfacet
facet normal 4.40795238709696e-016 2.8669659239237e-015 -1.0
  outer loop
    vertex 53.0 2.96096480667529e-014 2.25597318603832e-014
    vertex 53.0 10.0 4.51194637207664e-014
    vertex 55.0 10.0 7.89590615113411e-014
  endloop
endfacet
facet normal 4.40795238709696e-016 2.8669659239237e-015 -1.0
  outer loop
    vertex 53.0 2.96096480667529e-014 2.25597318603832e-014
    vertex 55.0 10.0 7.89590615113411e-014
    vertex 55.0 3.24296145493008e-014 3.38395977905748e-014
  endloop
endfacet
facet normal 4.40795238709696e-016 2.8669659239237e-015 -1.0
  outer loop
    vertex 2.0 10.0 2.25597318603832e-014
    vertex 1.59791751462282e-016 0.0 0.0
    vertex -5.45199869174693e-016 10.0 2.25597318603832e-014
  endloop
endfacet
facet normal 4.40795238709696e-016 2.8669659239237e-015 -1.0
  outer loop
    vertex 1.59791751462282e-016 0.0 0.0
    vertex 2.0 10.0 2.25597318603832e-014
    vertex 2.0 0.0 0.0
  endloop
endfacet
facet normal 4.40795238709696e-016 2.8669659239237e-015 -1.0
  outer loop
    vertex 2.0 0.0 0.0
    vertex 2.0 10.0 2.25597318603832e-014
    vertex 3.99999999999999 8.00000000000003 1.12798659301916e-014
  endloop
endfacet
facet normal 4.40795238709696e-016 2.8669659239237e-015 -1.0
  outer loop
    vertex 2.0 0.0 0.0
    vertex 3.99999999999999 8.00000000000003 1.12798659301916e-014
    vertex 3.99999999999999 2.0 1.12798659301916e-014
  endloop
endfacet
facet normal 4.40795238709696e-016 2.8669659239237e-015 -1.0
  outer loop
    vertex 3.99999999999999 2.0 1.12798659301916e-014
    vertex 3.99999999999999 8.00000000000003 1.12798659301916e-014
    vertex 3.99999999999999 6.0 0.0
  endloop
endfacet
facet normal 4.40795238709696e-016 2.8669659239237e-015 -1.0
  outer loop
    vertex 3.99999999999999 2.0 1.12798659301916e-014
    vertex 3.99999999999999 6.0 0.0
    vertex 3.99999999999999 3.99999999999999 -1.12798659301916e-014
  endloop
endfacet
facet normal 4.40795238709696e-016 2.8669659239237e-015 -1.0
  outer loop
    vertex 3.99999999999999 3.99999999999999 -1.12798659301916e-014
    vertex 3.99999999999999 6.0 0.0
    vertex 51.0 6.00000000000001 0.0
  endloop
endfacet
facet normal 4.40795238709696e-016 2.8669659239237e-015 -1.0
  outer loop
    vertex 3.99999999999999 3.99999999999999 -1.12798659301916e-014
    vertex 51.0 6.00000000000001 0.0
    vertex 51.0 4.0 -1.12798659301916e-014
  endloop
endfacet
facet normal 1.0 1.2425329629208e-031 7.45519777752517e-031
  outer loop
    vertex 3.99999999999999 3.99999999999999 -1.12798659301916e-014
    vertex 3.99999999999999 2.00000000000001 4.0
    vertex 3.99999999999999 2.0 1.12798659301916e-014
  endloop
endfacet
facet normal 1.0 1.2425329629208e-031 7.45519777752517e-031
  outer loop
    vertex 3.99999999999999 2.00000000000001 4.0
    vertex 3.99999999999999 3.99999999999999 -1.12798659301916e-014
    vertex 3.99999999999999 4.00000000000001 4.00000000000002
  endloop
endfacet
facet normal 0.707106781186547 -0.707106781186548 1.92897818237952e-015
  outer loop
    vertex 3.99999999999999 2.0 1.12798659301916e-014
    vertex 2.0 1.12798659301916e-014 4.0
    vertex 2.0 0.0 0.0
  endloop
endfacet
facet normal 0.707106781186547 -0.707106781186548 1.92897818237952e-015
  outer loop
    vertex 2.0 1.12798659301916e-014 4.0
    vertex 3.99999999999999 2.0 1.12798659301916e-014
    vertex 3.99999999999999 2.00000000000001 4.0
  endloop
endfacet
facet normal 2.89893205668392e-015 -1.0 -1.64484476847229e-015
  outer loop
    vertex 2.0 1.12798659301916e-014 4.0
    vertex 1.59791751462282e-016 0.0 0.0
    vertex 2.0 0.0 0.0
  endloop
endfacet
facet normal 2.89893205668392e-015 -1.0 -1.64484476847229e-015
  outer loop
    vertex 1.59791751462282e-016 0.0 0.0
    vertex 2.0 1.12798659301916e-014 4.0
    vertex 1.59791751462282e-016 -1.01518793371724e-013 64.0
  endloop
endfacet
facet normal 2.89893205668392e-015 -1.0 -1.64484476847229e-015
  outer loop
    vertex 1.59791751462282e-016 -1.01518793371724e-013 64.0
    vertex 2.0 1.12798659301916e-014 4.0
    vertex 1.99999999999999 -1.0010881013045e-013 64.0
  endloop
endfacet
facet normal -0.707106781186539 -0.707106781186556 -4.22891370752432e-015
  outer loop
    vertex 53.0 2.96096480667529e-014 2.25597318603832e-014
    vertex 51.0 2.00000000000001 4.0
    vertex 51.0 2.00000000000003 1.12798659301916e-014
  endloop
endfacet
facet normal -0.707106781186539 -0.707106781186556 -4.22891370752432e-015
  outer loop
    vertex 51.0 2.00000000000001 4.0
    vertex 53.0 2.96096480667529e-014 2.25597318603832e-014
    vertex 53.0 4.08895139969445e-014 4.00000000000003
  endloop
endfacet
facet normal -1.11691513107843e-014 1.0 1.68839794595956e-015
  outer loop
    vertex 52.9999999999999 10.0 4.00000000000002
    vertex 55.0 10.0 7.89590615113411e-014
    vertex 53.0 10.0 4.51194637207664e-014
  endloop
endfacet
facet normal -1.11691513107843e-014 1.0 1.68839794595956e-015
  outer loop
    vertex 55.0 10.0 7.89590615113411e-014
    vertex 52.9999999999999 10.0 4.00000000000002
    vertex 54.9999999999993 9.99999999999994 64.0
  endloop
endfacet
facet normal -1.11691513107843e-014 1.0 1.68839794595956e-015
  outer loop
    vertex 54.9999999999993 9.99999999999994 64.0
    vertex 52.9999999999999 10.0 4.00000000000002
    vertex 52.9999999999993 9.99999999999991 64.0
  endloop
endfacet
facet normal -6.35921711609724e-017 0.707106781186547 -0.707106781186548
  outer loop
    vertex 50.9 7.99999999999992 62.0
    vertex 4.09999999999999 5.99999999999991 60.0
    vertex 4.09999999999999 7.99999999999991 62.0
  endloop
endfacet
facet normal -6.35921711609724e-017 0.707106781186547 -0.707106781186548
  outer loop
    vertex 4.09999999999999 5.99999999999991 60.0
    vertex 50.9 7.99999999999992 62.0
    vertex 50.9 5.99999999999992 60.0
  endloop
endfacet
facet normal 1.01408129026622e-016 -1.0 -1.50807274584157e-015
  outer loop
    vertex 50.9 3.99999999999992 60.0
    vertex 4.09999999999999 4.00000000000001 4.00000000000002
    vertex 50.9 4.00000000000001 4.00000000000002
  endloop
endfacet
facet normal 1.01408129026622e-016 -1.0 -1.50807274584157e-015
  outer loop
    vertex 4.09999999999999 4.00000000000001 4.00000000000002
    vertex 50.9 3.99999999999992 60.0
    vertex 4.09999999999999 3.99999999999991 60.0
  endloop
endfacet
facet normal 1.01408129026622e-016 -1.0 -1.50807274584157e-015
  outer loop
    vertex 51.0 4.00000000000001 4.00000000000002
    vertex 3.99999999999999 3.99999999999999 -1.12798659301916e-014
    vertex 51.0 4.0 -1.12798659301916e-014
  endloop
endfacet
facet normal 1.01408129026622e-016 -1.0 -1.50807274584157e-015
  outer loop
    vertex 3.99999999999999 3.99999999999999 -1.12798659301916e-014
    vertex 51.0 4.00000000000001 4.00000000000002
    vertex 3.99999999999999 4.00000000000001 4.00000000000002
  endloop
endfacet
facet normal 1.01408129026622e-016 -1.0 -1.50807274584157e-015
  outer loop
    vertex 3.99999999999999 4.00000000000001 4.00000000000002
    vertex 51.0 4.00000000000001 4.00000000000002
    vertex 50.9 4.00000000000001 4.00000000000002
  endloop
endfacet
facet normal 1.01408129026622e-016 -1.0 -1.50807274584157e-015
  outer loop
    vertex 3.99999999999999 4.00000000000001 4.00000000000002
    vertex 50.9 4.00000000000001 4.00000000000002
    vertex 4.09999999999999 4.00000000000001 4.00000000000002
  endloop
endfacet
facet normal 1.01169363210637e-016 -0.707106781186543 -0.707106781186552
  outer loop
    vertex 50.9 3.99999999999992 60.0
    vertex 4.09999999999999 1.99999999999989 62.0
    vertex 4.09999999999999 3.99999999999991 60.0
  endloop
endfacet
facet normal 1.01169363210637e-016 -0.707106781186543 -0.707106781186552
  outer loop
    vertex 4.09999999999999 1.99999999999989 62.0
    vertex 50.9 3.99999999999992 60.0
    vertex 50.9 1.9999999999999 62.0
  endloop
endfacet
facet normal 0.0 0.0 1.0
  outer loop
    vertex 4.09999999999999 1.99999999999989 62.0
    vertex 50.9 7.99999999999992 62.0
    vertex 4.09999999999999 7.99999999999991 62.0
  endloop
endfacet
facet normal 0.0 0.0 1.0
  outer loop
    vertex 50.9 7.99999999999992 62.0
    vertex 4.09999999999999 1.99999999999989 62.0
    vertex 50.9 1.9999999999999 62.0
  endloop
endfacet
facet normal 1.0 -7.04991620636975e-017 -1.18526599925203e-031
  outer loop
    vertex 2.0 1.12798659301916e-014 4.0
    vertex 2.0 9.99999999999991 64.0
    vertex 1.99999999999999 -1.0010881013045e-013 64.0
  endloop
endfacet
facet normal 1.0 -7.04991620636975e-017 -1.18526599925203e-031
  outer loop
    vertex 2.0 9.99999999999991 64.0
    vertex 2.0 1.12798659301916e-014 4.0
    vertex 2.0 10.0 4.0
  endloop
endfacet
facet normal -1.0 -6.2039262616054e-015 -1.118586704744e-014
  outer loop
    vertex 52.9999999999993 9.99999999999991 64.0
    vertex 53.0 4.08895139969445e-014 4.00000000000003
    vertex 52.9999999999993 -7.19091453049714e-014 64.0
  endloop
endfacet
facet normal -1.0 -6.2039262616054e-015 -1.118586704744e-014
  outer loop
    vertex 53.0 4.08895139969445e-014 4.00000000000003
    vertex 52.9999999999993 9.99999999999991 64.0
    vertex 52.9999999999999 10.0 4.00000000000002
  endloop
endfacet
facet normal -1.0 1.40998324127396e-014 -4.22994972382181e-015
  outer loop
    vertex 51.0 4.00000000000001 4.00000000000002
    vertex 51.0 2.00000000000003 1.12798659301916e-014
    vertex 51.0 2.00000000000001 4.0
  endloop
endfacet
facet normal -1.0 1.40998324127396e-014 -4.22994972382181e-015
  outer loop
    vertex 51.0 2.00000000000003 1.12798659301916e-014
    vertex 51.0 4.00000000000001 4.00000000000002
    vertex 51.0 4.0 -1.12798659301916e-014
  endloop
endfacet
facet normal 1.0 1.02544235729015e-015 9.88549135948543e-017
  outer loop
    vertex 50.9 6.00000000000001 4.0
    vertex 50.9 5.99999999999992 60.0
    vertex 50.9 4.00000000000001 4.00000000000002
  endloop
endfacet
facet normal 1.0 1.02544235729015e-015 9.88549135948543e-017
  outer loop
    vertex 50.9 3.99999999999992 60.0
    vertex 50.9 7.99999999999992 62.0
    vertex 50.9 1.9999999999999 62.0
  endloop
endfacet
facet normal 1.0 1.02544235729015e-015 9.88549135948543e-017
  outer loop
    vertex 50.9 7.99999999999992 62.0
    vertex 50.9 3.99999999999992 60.0
    vertex 50.9 5.99999999999992 60.0
  endloop
endfacet
facet normal 1.0 1.02544235729015e-015 9.88549135948543e-017
  outer loop
    vertex 50.9 5.99999999999992 60.0
    vertex 50.9 3.99999999999992 60.0
    vertex 50.9 4.00000000000001 4.00000000000002
  endloop
endfacet
facet normal -1.0 -4.1658595764912e-016 9.4302384679293e-018
  outer loop
    vertex 4.09999999999999 7.99999999999991 62.0
    vertex 4.09999999999999 3.99999999999991 60.0
    vertex 4.09999999999999 1.99999999999989 62.0
  endloop
endfacet
facet normal -1.0 -4.1658595764912e-016 9.4302384679293e-018
  outer loop
    vertex 4.09999999999999 3.99999999999991 60.0
    vertex 4.09999999999999 7.99999999999991 62.0
    vertex 4.09999999999999 5.99999999999991 60.0
  endloop
endfacet
facet normal -1.0 -4.1658595764912e-016 9.4302384679293e-018
  outer loop
    vertex 4.09999999999999 3.99999999999991 60.0
    vertex 4.09999999999999 5.99999999999991 60.0
    vertex 4.09999999999999 4.00000000000001 4.00000000000002
  endloop
endfacet
facet normal -1.0 -4.1658595764912e-016 9.4302384679293e-018
  outer loop
    vertex 4.09999999999999 6.0 4.0
    vertex 4.09999999999999 4.00000000000001 4.00000000000002
    vertex 4.09999999999999 5.99999999999991 60.0
  endloop
endfacet
endsolid AAA_Divider_Normal
