solid 18650_Divider_Normal
facet normal 1.48998245002744e-008 -1.0 4.47744667207949e-017
  outer loop
    vertex 78.0000000000001 1.16218642178811e-006 8.64319726900931e-013
    vertex 76.0000000000001 1.13238677706962e-006 4.00000000000084
    vertex 76.0000000000001 1.13238678129957e-006 8.54449844212013e-013
  endloop
endfacet
facet normal 1.48998245002744e-008 -1.0 4.47744667207949e-017
  outer loop
    vertex 76.0000000000001 1.13238677706962e-006 4.00000000000084
    vertex 78.0000000000001 1.16218642178811e-006 8.64319726900931e-013
    vertex 77.9999999999994 1.16218643306798e-006 64.0000000000008
  endloop
endfacet
facet normal 1.48998245002744e-008 -1.0 4.47744667207949e-017
  outer loop
    vertex 76.0000000000001 1.13238677706962e-006 4.00000000000084
    vertex 77.9999999999994 1.16218643306798e-006 64.0000000000008
    vertex 75.9999999999994 1.13238677565963e-006 64.0000000000008
  endloop
endfacet
facet normal -1.48998244188664e-008 1.0 -4.91703162690333e-016
  outer loop
    vertex -1.48998253201827e-007 10.0 63.9999999999999
    vertex 1.99999985100175 10.0000000297997 -4.14529521819421e-014
    vertex -1.48998253201827e-007 10.0 -5.06178432502227e-014
  endloop
endfacet
facet normal -1.48998244188664e-008 1.0 -4.91703162690333e-016
  outer loop
    vertex 1.99999985100175 10.0000000297997 -4.14529521819421e-014
    vertex -1.48998253201827e-007 10.0 63.9999999999999
    vertex 1.99999985100175 10.0000000297997 3.99999999999991
  endloop
endfacet
facet normal -1.48998244188664e-008 1.0 -4.91703162690333e-016
  outer loop
    vertex 1.99999985100175 10.0000000297997 3.99999999999991
    vertex -1.48998253201827e-007 10.0 63.9999999999999
    vertex 1.99999985100175 10.0000000297997 64.0
  endloop
endfacet
facet normal 1.4899835861548e-008 -1.0 1.23739868760826e-016
  outer loop
    vertex 2.0 2.97996658682464e-008 1.12798659301916e-014
    vertex 3.10491507344639e-019 -2.8199664825479e-015 64.0
    vertex 3.10491507344639e-019 0.0 0.0
  endloop
endfacet
facet normal 1.4899835861548e-008 -1.0 1.23739868760826e-016
  outer loop
    vertex 3.10491507344639e-019 -2.8199664825479e-015 64.0
    vertex 2.0 2.97996658682464e-008 1.12798659301916e-014
    vertex 2.0 2.97996616382967e-008 4.00000000000001
  endloop
endfacet
facet normal 1.4899835861548e-008 -1.0 1.23739868760826e-016
  outer loop
    vertex 3.10491507344639e-019 -2.8199664825479e-015 64.0
    vertex 2.0 2.97996616382967e-008 4.00000000000001
    vertex 2.0 2.97996799680789e-008 64.0
  endloop
endfacet
facet normal -1.0 -1.48998253202138e-008 -1.18438592269028e-014
  outer loop
    vertex 75.9999998510011 10.0000011323868 64.0000000000008
    vertex 76.0000000000001 1.13238677706962e-006 4.00000000000084
    vertex 75.9999999999994 1.13238677565963e-006 64.0000000000008
  endloop
endfacet
facet normal -1.0 -1.48998253202138e-008 -1.18438592269028e-014
  outer loop
    vertex 76.0000000000001 1.13238677706962e-006 4.00000000000084
    vertex 75.9999998510011 10.0000011323868 64.0000000000008
    vertex 75.9999998510018 10.0000011323868 4.00000000000075
  endloop
endfacet
facet normal 1.64921764810725e-013 -5.33818259256701e-014 1.0
  outer loop
    vertex 2.0 2.97996616382967e-008 4.00000000000001
    vertex 4.55199806547815 7.44800189137193 3.99999999999993
    vertex 1.99999985100175 10.0000000297997 3.99999999999991
  endloop
endfacet
facet normal 1.64921764810725e-013 -5.33818259256701e-014 1.0
  outer loop
    vertex 4.55199806547815 7.44800189137193 3.99999999999993
    vertex 2.0 2.97996616382967e-008 4.00000000000001
    vertex 4.55199801746523 6.00000006782405 3.99999999999995
  endloop
endfacet
facet normal 1.64921764810725e-013 -5.33818259256701e-014 1.0
  outer loop
    vertex 2.0 2.97996616382967e-008 4.00000000000001
    vertex 4.55199804726491 4.00000006782404 3.99999999999995
    vertex 4.55199801746523 6.00000006782405 3.99999999999995
  endloop
endfacet
facet normal 1.64921764810725e-013 -5.33818259256701e-014 1.0
  outer loop
    vertex 4.55199804726491 4.00000006782404 3.99999999999995
    vertex 2.0 2.97996616382967e-008 4.00000000000001
    vertex 4.55199821137734 2.55199831722565 3.99999999999833
  endloop
endfacet
facet normal 1.64921764810725e-013 -5.33818259256701e-014 1.0
  outer loop
    vertex 4.55199804726491 4.00000006782404 3.99999999999995
    vertex 4.65199801746523 6.00000006931403 3.99999999999995
    vertex 4.55199801746523 6.00000006782405 3.99999999999995
  endloop
endfacet
facet normal 1.64921764810725e-013 -5.33818259256701e-014 1.0
  outer loop
    vertex 4.65199801746523 6.00000006931403 3.99999999999995
    vertex 4.55199804726491 4.00000006782404 3.99999999999995
    vertex 4.6519980472649 4.00000006931402 3.99999999999995
  endloop
endfacet
facet normal 1.0 -3.31578471501624e-008 -6.96179230525144e-014
  outer loop
    vertex 4.55199806547757 7.44800189137209 2.38152052823383e-013
    vertex 4.55199801746523 6.00000006782405 3.99999999999995
    vertex 4.55199801746525 6.00000006782401 -7.52786721847094e-014
  endloop
endfacet
facet normal 1.0 -3.31578471501624e-008 -6.96179230525144e-014
  outer loop
    vertex 4.55199801746523 6.00000006782405 3.99999999999995
    vertex 4.55199806547757 7.44800189137209 2.38152052823383e-013
    vertex 4.55199806547815 7.44800189137193 3.99999999999993
  endloop
endfacet
facet normal -1.0 -1.48998253202137e-008 3.5828547291448e-024
  outer loop
    vertex -1.48998253201827e-007 10.0 63.9999999999999
    vertex 3.10491507344639e-019 0.0 0.0
    vertex 3.10491507344639e-019 -2.8199664825479e-015 64.0
  endloop
endfacet
facet normal -1.0 -1.48998253202137e-008 3.5828547291448e-024
  outer loop
    vertex 3.10491507344639e-019 0.0 0.0
    vertex -1.48998253201827e-007 10.0 63.9999999999999
    vertex -1.48998253201827e-007 10.0 -5.06178432502227e-014
  endloop
endfacet
facet normal -1.48998344190018e-008 1.0 -8.46642868379393e-017
  outer loop
    vertex 75.9999998510018 10.0000011323868 4.00000000000075
    vertex 77.9999998510018 10.0000011621864 8.10529421357841e-013
    vertex 75.9999998510018 10.0000011323868 7.93257126652236e-013
  endloop
endfacet
facet normal -1.48998344190018e-008 1.0 -8.46642868379393e-017
  outer loop
    vertex 77.9999998510018 10.0000011621864 8.10529421357841e-013
    vertex 75.9999998510018 10.0000011323868 4.00000000000075
    vertex 77.9999998510011 10.0000011621864 64.0000000000008
  endloop
endfacet
facet normal -1.48998344190018e-008 1.0 -8.46642868379393e-017
  outer loop
    vertex 77.9999998510011 10.0000011621864 64.0000000000008
    vertex 75.9999998510018 10.0000011323868 4.00000000000075
    vertex 75.9999998510011 10.0000011323868 64.0000000000008
  endloop
endfacet
facet normal -1.0 2.07099975479192e-008 -1.24078524480208e-013
  outer loop
    vertex 73.4479998812741 7.44800108661027 4.00000000000035
    vertex 73.4479998512866 6.00000109436233 7.37576666409723e-013
    vertex 73.4479998512866 6.00000109436226 4.00000000000074
  endloop
endfacet
facet normal -1.0 2.07099975479192e-008 -1.24078524480208e-013
  outer loop
    vertex 73.4479998512866 6.00000109436233 7.37576666409723e-013
    vertex 73.4479998812741 7.44800108661027 4.00000000000035
    vertex 73.4479998812751 7.4480010866105 8.82514394898837e-013
  endloop
endfacet
facet normal -1.17880620842516e-014 -1.75640012507921e-022 1.0
  outer loop
    vertex 4.65199807706456 2.00000006931402 62.0
    vertex 73.3479998214869 8.00000109287244 62.0000000000008
    vertex 4.65199798766558 8.00000006931401 62.0
  endloop
endfacet
facet normal -1.17880620842516e-014 -1.75640012507921e-022 1.0
  outer loop
    vertex 73.3479998214869 8.00000109287244 62.0000000000008
    vertex 4.65199807706456 2.00000006931402 62.0
    vertex 73.3479999108858 2.00000109287228 62.0000000000008
  endloop
endfacet
facet normal -1.48998233178473e-008 1.0 -4.67766941102092e-017
  outer loop
    vertex 4.65199801746523 6.00000006931404 59.9999999999999
    vertex 73.3479998512865 6.00000109287228 4.00000000000074
    vertex 4.65199801746523 6.00000006931403 3.99999999999995
  endloop
endfacet
facet normal -1.48998233178473e-008 1.0 -4.67766941102092e-017
  outer loop
    vertex 73.3479998512865 6.00000109287228 4.00000000000074
    vertex 4.65199801746523 6.00000006931404 59.9999999999999
    vertex 73.3479998512866 6.0000010928723 60.0000000000008
  endloop
endfacet
facet normal -1.48998233178473e-008 1.0 -4.67766941102092e-017
  outer loop
    vertex 4.55199801746523 6.00000006782405 3.99999999999995
    vertex 73.4479998512866 6.00000109436233 7.37576666409723e-013
    vertex 4.55199801746525 6.00000006782401 -7.52786721847094e-014
  endloop
endfacet
facet normal -1.48998233178473e-008 1.0 -4.67766941102092e-017
  outer loop
    vertex 73.4479998512866 6.00000109436233 7.37576666409723e-013
    vertex 4.55199801746523 6.00000006782405 3.99999999999995
    vertex 4.65199801746523 6.00000006931403 3.99999999999995
  endloop
endfacet
facet normal -1.48998233178473e-008 1.0 -4.67766941102092e-017
  outer loop
    vertex 73.4479998512866 6.00000109436233 7.37576666409723e-013
    vertex 4.65199801746523 6.00000006931403 3.99999999999995
    vertex 73.4479998512866 6.00000109436226 4.00000000000074
  endloop
endfacet
facet normal -1.48998233178473e-008 1.0 -4.67766941102092e-017
  outer loop
    vertex 73.4479998512866 6.00000109436226 4.00000000000074
    vertex 4.65199801746523 6.00000006931403 3.99999999999995
    vertex 73.3479998512865 6.00000109287228 4.00000000000074
  endloop
endfacet
facet normal -1.05357583686255e-008 0.70710678118654 -0.707106781186555
  outer loop
    vertex 73.3479998214869 8.00000109287244 62.0000000000008
    vertex 4.65199801746523 6.00000006931404 59.9999999999999
    vertex 4.65199798766558 8.00000006931401 62.0
  endloop
endfacet
facet normal -1.05357583686255e-008 0.70710678118654 -0.707106781186555
  outer loop
    vertex 4.65199801746523 6.00000006931404 59.9999999999999
    vertex 73.3479998214869 8.00000109287244 62.0000000000008
    vertex 73.3479998512866 6.0000010928723 60.0000000000008
  endloop
endfacet
facet normal -0.707106770650847 -0.707106791722248 -1.01296090248936e-013
  outer loop
    vertex 76.0000000000001 1.13238678129957e-006 8.54449844212013e-013
    vertex 73.4480000271732 2.55200102916489 3.99999999999874
    vertex 73.4480000271742 2.55200102916508 -7.35734584338311e-013
  endloop
endfacet
facet normal -0.707106770650847 -0.707106791722248 -1.01296090248936e-013
  outer loop
    vertex 73.4480000271732 2.55200102916489 3.99999999999874
    vertex 76.0000000000001 1.13238678129957e-006 8.54449844212013e-013
    vertex 76.0000000000001 1.13238677706962e-006 4.00000000000084
  endloop
endfacet
facet normal 1.0 1.48998253202137e-008 1.17498552602055e-017
  outer loop
    vertex 1.99999985100175 10.0000000297997 3.99999999999991
    vertex 2.0 2.97996799680789e-008 64.0
    vertex 2.0 2.97996616382967e-008 4.00000000000001
  endloop
endfacet
facet normal 1.0 1.48998253202137e-008 1.17498552602055e-017
  outer loop
    vertex 2.0 2.97996799680789e-008 64.0
    vertex 1.99999985100175 10.0000000297997 3.99999999999991
    vertex 1.99999985100175 10.0000000297997 64.0
  endloop
endfacet
facet normal -5.63993308274352e-015 7.8959060671001e-015 1.0
  outer loop
    vertex 75.9999999999994 1.13238677565963e-006 64.0000000000008
    vertex 77.9999998510011 10.0000011621864 64.0000000000008
    vertex 75.9999998510011 10.0000011323868 64.0000000000008
  endloop
endfacet
facet normal -5.63993308274352e-015 7.8959060671001e-015 1.0
  outer loop
    vertex 77.9999998510011 10.0000011621864 64.0000000000008
    vertex 75.9999999999994 1.13238677565963e-006 64.0000000000008
    vertex 77.9999999999994 1.16218643306798e-006 64.0000000000008
  endloop
endfacet
facet normal 1.0 1.48998270121936e-008 1.1191741973052e-014
  outer loop
    vertex 77.9999998510018 10.0000011621864 8.10529421357841e-013
    vertex 77.9999999999994 1.16218643306798e-006 64.0000000000008
    vertex 78.0000000000001 1.16218642178811e-006 8.64319726900931e-013
  endloop
endfacet
facet normal 1.0 1.48998270121936e-008 1.1191741973052e-014
  outer loop
    vertex 77.9999999999994 1.16218643306798e-006 64.0000000000008
    vertex 77.9999998510018 10.0000011621864 8.10529421357841e-013
    vertex 77.9999998510011 10.0000011621864 64.0000000000008
  endloop
endfacet
facet normal 1.0535774012547e-008 -0.707106781186545 -0.70710678118655
  outer loop
    vertex 73.3479998810862 4.0000010928723 60.0000000000008
    vertex 4.65199807706456 2.00000006931402 62.0
    vertex 4.6519980472649 4.00000006931405 60.0
  endloop
endfacet
facet normal 1.0535774012547e-008 -0.707106781186545 -0.70710678118655
  outer loop
    vertex 4.65199807706456 2.00000006931402 62.0
    vertex 73.3479998810862 4.0000010928723 60.0000000000008
    vertex 73.3479999108858 2.00000109287228 62.0000000000008
  endloop
endfacet
facet normal -1.00840866000908e-022 6.76791955811494e-015 1.0
  outer loop
    vertex 3.10491507344639e-019 -2.8199664825479e-015 64.0
    vertex 1.99999985100175 10.0000000297997 64.0
    vertex -1.48998253201827e-007 10.0 63.9999999999999
  endloop
endfacet
facet normal -1.00840866000908e-022 6.76791955811494e-015 1.0
  outer loop
    vertex 1.99999985100175 10.0000000297997 64.0
    vertex 3.10491507344639e-019 -2.8199664825479e-015 64.0
    vertex 2.0 2.97996799680789e-008 64.0
  endloop
endfacet
facet normal 0.707106770650807 0.707106791722288 -3.84806402237134e-014
  outer loop
    vertex 1.99999985100175 10.0000000297997 3.99999999999991
    vertex 4.55199806547757 7.44800189137209 2.38152052823383e-013
    vertex 1.99999985100175 10.0000000297997 -4.14529521819421e-014
  endloop
endfacet
facet normal 0.707106770650807 0.707106791722288 -3.84806402237134e-014
  outer loop
    vertex 4.55199806547757 7.44800189137209 2.38152052823383e-013
    vertex 1.99999985100175 10.0000000297997 3.99999999999991
    vertex 4.55199806547815 7.44800189137193 3.99999999999993
  endloop
endfacet
facet normal 0.999999999999994 1.13336966446641e-007 -6.73266976129787e-014
  outer loop
    vertex 4.55199821137676 2.55199831722583 -1.37657196674885e-012
    vertex 4.55199804726491 4.00000006782404 3.99999999999995
    vertex 4.55199821137734 2.55199831722565 3.99999999999833
  endloop
endfacet
facet normal 0.999999999999994 1.13336966446641e-007 -6.73266976129787e-014
  outer loop
    vertex 4.55199804726491 4.00000006782404 3.99999999999995
    vertex 4.55199821137676 2.55199831722583 -1.37657196674885e-012
    vertex 4.55199804726494 4.00000006782401 -6.87505607999124e-014
  endloop
endfacet
facet normal 0.707106791722367 -0.707106770650728 -6.7316387821328e-014
  outer loop
    vertex 2.0 2.97996658682464e-008 1.12798659301916e-014
    vertex 4.55199821137734 2.55199831722565 3.99999999999833
    vertex 2.0 2.97996616382967e-008 4.00000000000001
  endloop
endfacet
facet normal 0.707106791722367 -0.707106770650728 -6.7316387821328e-014
  outer loop
    vertex 4.55199821137734 2.55199831722565 3.99999999999833
    vertex 2.0 2.97996658682464e-008 1.12798659301916e-014
    vertex 4.55199821137676 2.55199831722583 -1.37657196674885e-012
  endloop
endfacet
facet normal -2.55808067580138e-013 -5.45979283493909e-014 1.0
  outer loop
    vertex 73.3479998810862 4.00000109287226 4.00000000000073
    vertex 73.4479998512866 6.00000109436226 4.00000000000074
    vertex 73.3479998512865 6.00000109287228 4.00000000000074
  endloop
endfacet
facet normal -2.55808067580138e-013 -5.45979283493909e-014 1.0
  outer loop
    vertex 73.4479998512866 6.00000109436226 4.00000000000074
    vertex 73.3479998810862 4.00000109287226 4.00000000000073
    vertex 73.4479998810862 4.00000109436224 4.00000000000073
  endloop
endfacet
facet normal -2.55808067580138e-013 -5.45979283493909e-014 1.0
  outer loop
    vertex 73.4479998512866 6.00000109436226 4.00000000000074
    vertex 73.4479998810862 4.00000109436224 4.00000000000073
    vertex 73.4479998812741 7.44800108661027 4.00000000000035
  endloop
endfacet
facet normal -2.55808067580138e-013 -5.45979283493909e-014 1.0
  outer loop
    vertex 73.4479998812741 7.44800108661027 4.00000000000035
    vertex 73.4479998810862 4.00000109436224 4.00000000000073
    vertex 73.4480000271732 2.55200102916489 3.99999999999874
  endloop
endfacet
facet normal -2.55808067580138e-013 -5.45979283493909e-014 1.0
  outer loop
    vertex 73.4479998812741 7.44800108661027 4.00000000000035
    vertex 73.4480000271732 2.55200102916489 3.99999999999874
    vertex 75.9999998510018 10.0000011323868 4.00000000000075
  endloop
endfacet
facet normal -2.55808067580138e-013 -5.45979283493909e-014 1.0
  outer loop
    vertex 75.9999998510018 10.0000011323868 4.00000000000075
    vertex 73.4480000271732 2.55200102916489 3.99999999999874
    vertex 76.0000000000001 1.13238677706962e-006 4.00000000000084
  endloop
endfacet
facet normal 1.08791721370151e-014 2.99477828546945e-014 -1.0
  outer loop
    vertex 1.99999985100175 10.0000000297997 -4.14529521819421e-014
    vertex 3.10491507344639e-019 0.0 0.0
    vertex -1.48998253201827e-007 10.0 -5.06178432502227e-014
  endloop
endfacet
facet normal 1.08791721370151e-014 2.99477828546945e-014 -1.0
  outer loop
    vertex 3.10491507344639e-019 0.0 0.0
    vertex 1.99999985100175 10.0000000297997 -4.14529521819421e-014
    vertex 2.0 2.97996658682464e-008 1.12798659301916e-014
  endloop
endfacet
facet normal 1.08791721370151e-014 2.99477828546945e-014 -1.0
  outer loop
    vertex 2.0 2.97996658682464e-008 1.12798659301916e-014
    vertex 1.99999985100175 10.0000000297997 -4.14529521819421e-014
    vertex 4.55199806547757 7.44800189137209 2.38152052823383e-013
  endloop
endfacet
facet normal 1.08791721370151e-014 2.99477828546945e-014 -1.0
  outer loop
    vertex 2.0 2.97996658682464e-008 1.12798659301916e-014
    vertex 4.55199806547757 7.44800189137209 2.38152052823383e-013
    vertex 4.55199801746525 6.00000006782401 -7.52786721847094e-014
  endloop
endfacet
facet normal 1.08791721370151e-014 2.99477828546945e-014 -1.0
  outer loop
    vertex 73.4479998512866 6.00000109436233 7.37576666409723e-013
    vertex 4.55199804726494 4.00000006782401 -6.87505607999124e-014
    vertex 4.55199801746525 6.00000006782401 -7.52786721847094e-014
  endloop
endfacet
facet normal 1.08791721370151e-014 2.99477828546945e-014 -1.0
  outer loop
    vertex 4.55199804726494 4.00000006782401 -6.87505607999124e-014
    vertex 73.4479998512866 6.00000109436233 7.37576666409723e-013
    vertex 73.4479998810862 4.00000109436233 7.26479987278595e-013
  endloop
endfacet
facet normal 1.08791721370151e-014 2.99477828546945e-014 -1.0
  outer loop
    vertex 73.4479998810862 4.00000109436233 7.26479987278595e-013
    vertex 73.4479998512866 6.00000109436233 7.37576666409723e-013
    vertex 73.4479998812751 7.4480010866105 8.82514394898837e-013
  endloop
endfacet
facet normal 1.08791721370151e-014 2.99477828546945e-014 -1.0
  outer loop
    vertex 73.4479998810862 4.00000109436233 7.26479987278595e-013
    vertex 73.4479998812751 7.4480010866105 8.82514394898837e-013
    vertex 73.4480000271742 2.55200102916508 -7.35734584338311e-013
  endloop
endfacet
facet normal 1.08791721370151e-014 2.99477828546945e-014 -1.0
  outer loop
    vertex 73.4480000271742 2.55200102916508 -7.35734584338311e-013
    vertex 73.4479998812751 7.4480010866105 8.82514394898837e-013
    vertex 75.9999998510018 10.0000011323868 7.93257126652236e-013
  endloop
endfacet
facet normal 1.08791721370151e-014 2.99477828546945e-014 -1.0
  outer loop
    vertex 73.4480000271742 2.55200102916508 -7.35734584338311e-013
    vertex 75.9999998510018 10.0000011323868 7.93257126652236e-013
    vertex 76.0000000000001 1.13238678129957e-006 8.54449844212013e-013
  endloop
endfacet
facet normal 1.08791721370151e-014 2.99477828546945e-014 -1.0
  outer loop
    vertex 76.0000000000001 1.13238678129957e-006 8.54449844212013e-013
    vertex 75.9999998510018 10.0000011323868 7.93257126652236e-013
    vertex 77.9999998510018 10.0000011621864 8.10529421357841e-013
  endloop
endfacet
facet normal 1.08791721370151e-014 2.99477828546945e-014 -1.0
  outer loop
    vertex 76.0000000000001 1.13238678129957e-006 8.54449844212013e-013
    vertex 77.9999998510018 10.0000011621864 8.10529421357841e-013
    vertex 78.0000000000001 1.16218642178811e-006 8.64319726900931e-013
  endloop
endfacet
facet normal 1.08791721370151e-014 2.99477828546945e-014 -1.0
  outer loop
    vertex 2.0 2.97996658682464e-008 1.12798659301916e-014
    vertex 4.55199804726494 4.00000006782401 -6.87505607999124e-014
    vertex 4.55199821137676 2.55199831722583 -1.37657196674885e-012
  endloop
endfacet
facet normal 1.08791721370151e-014 2.99477828546945e-014 -1.0
  outer loop
    vertex 4.55199804726494 4.00000006782401 -6.87505607999124e-014
    vertex 2.0 2.97996658682464e-008 1.12798659301916e-014
    vertex 4.55199801746525 6.00000006782401 -7.52786721847094e-014
  endloop
endfacet
facet normal -0.999999999999995 -1.00889126147389e-007 -1.21258562235469e-013
  outer loop
    vertex 73.4479998810862 4.00000109436224 4.00000000000073
    vertex 73.4480000271742 2.55200102916508 -7.35734584338311e-013
    vertex 73.4480000271732 2.55200102916489 3.99999999999874
  endloop
endfacet
facet normal -0.999999999999995 -1.00889126147389e-007 -1.21258562235469e-013
  outer loop
    vertex 73.4480000271742 2.55200102916508 -7.35734584338311e-013
    vertex 73.4479998810862 4.00000109436224 4.00000000000073
    vertex 73.4479998810862 4.00000109436233 7.26479987278595e-013
  endloop
endfacet
facet normal 1.48998232496294e-008 -1.0 2.87342561633993e-016
  outer loop
    vertex 73.4479998810862 4.00000109436224 4.00000000000073
    vertex 4.6519980472649 4.00000006931402 3.99999999999995
    vertex 73.4479998810862 4.00000109436233 7.26479987278595e-013
  endloop
endfacet
facet normal 1.48998232496294e-008 -1.0 2.87342561633993e-016
  outer loop
    vertex 4.6519980472649 4.00000006931402 3.99999999999995
    vertex 73.4479998810862 4.00000109436224 4.00000000000073
    vertex 73.3479998810862 4.00000109287226 4.00000000000073
  endloop
endfacet
facet normal 1.48998232496294e-008 -1.0 2.87342561633993e-016
  outer loop
    vertex 4.6519980472649 4.00000006931402 3.99999999999995
    vertex 73.3479998810862 4.00000109287226 4.00000000000073
    vertex 4.6519980472649 4.00000006931405 60.0
  endloop
endfacet
facet normal 1.48998232496294e-008 -1.0 2.87342561633993e-016
  outer loop
    vertex 4.6519980472649 4.00000006931405 60.0
    vertex 73.3479998810862 4.00000109287226 4.00000000000073
    vertex 73.3479998810862 4.0000010928723 60.0000000000008
  endloop
endfacet
facet normal 1.48998232496294e-008 -1.0 2.87342561633993e-016
  outer loop
    vertex 73.4479998810862 4.00000109436233 7.26479987278595e-013
    vertex 4.55199804726491 4.00000006782404 3.99999999999995
    vertex 4.55199804726494 4.00000006782401 -6.87505607999124e-014
  endloop
endfacet
facet normal 1.48998232496294e-008 -1.0 2.87342561633993e-016
  outer loop
    vertex 4.55199804726491 4.00000006782404 3.99999999999995
    vertex 73.4479998810862 4.00000109436233 7.26479987278595e-013
    vertex 4.6519980472649 4.00000006931402 3.99999999999995
  endloop
endfacet
facet normal -0.70710679172238 0.707106770650715 -6.38046640382403e-014
  outer loop
    vertex 75.9999998510018 10.0000011323868 4.00000000000075
    vertex 73.4479998812751 7.4480010866105 8.82514394898837e-013
    vertex 73.4479998812741 7.44800108661027 4.00000000000035
  endloop
endfacet
facet normal -0.70710679172238 0.707106770650715 -6.38046640382403e-014
  outer loop
    vertex 73.4479998812751 7.4480010866105 8.82514394898837e-013
    vertex 75.9999998510018 10.0000011323868 4.00000000000075
    vertex 75.9999998510018 10.0000011323868 7.93257126652236e-013
  endloop
endfacet
facet normal -1.0 -1.48998313959597e-008 6.50361335838282e-018
  outer loop
    vertex 4.65199798766558 8.00000006931401 62.0
    vertex 4.6519980472649 4.00000006931405 60.0
    vertex 4.65199807706456 2.00000006931402 62.0
  endloop
endfacet
facet normal -1.0 -1.48998313959597e-008 6.50361335838282e-018
  outer loop
    vertex 4.6519980472649 4.00000006931405 60.0
    vertex 4.65199798766558 8.00000006931401 62.0
    vertex 4.65199801746523 6.00000006931404 59.9999999999999
  endloop
endfacet
facet normal -1.0 -1.48998313959597e-008 6.50361335838282e-018
  outer loop
    vertex 4.6519980472649 4.00000006931405 60.0
    vertex 4.65199801746523 6.00000006931404 59.9999999999999
    vertex 4.65199801746523 6.00000006931403 3.99999999999995
  endloop
endfacet
facet normal -1.0 -1.48998313959597e-008 6.50361335838282e-018
  outer loop
    vertex 4.65199801746523 6.00000006931403 3.99999999999995
    vertex 4.6519980472649 4.00000006931402 3.99999999999995
    vertex 4.6519980472649 4.00000006931405 60.0
  endloop
endfacet
facet normal 1.0 1.4899813835259e-008 6.24346661930841e-017
  outer loop
    vertex 73.3479998512865 6.00000109287228 4.00000000000074
    vertex 73.3479998810862 4.0000010928723 60.0000000000008
    vertex 73.3479998810862 4.00000109287226 4.00000000000073
  endloop
endfacet
facet normal 1.0 1.4899813835259e-008 6.24346661930841e-017
  outer loop
    vertex 73.3479998810862 4.0000010928723 60.0000000000008
    vertex 73.3479998214869 8.00000109287244 62.0000000000008
    vertex 73.3479999108858 2.00000109287228 62.0000000000008
  endloop
endfacet
facet normal 1.0 1.4899813835259e-008 6.24346661930841e-017
  outer loop
    vertex 73.3479998214869 8.00000109287244 62.0000000000008
    vertex 73.3479998810862 4.0000010928723 60.0000000000008
    vertex 73.3479998512866 6.0000010928723 60.0000000000008
  endloop
endfacet
facet normal 1.0 1.4899813835259e-008 6.24346661930841e-017
  outer loop
    vertex 73.3479998512866 6.0000010928723 60.0000000000008
    vertex 73.3479998810862 4.0000010928723 60.0000000000008
    vertex 73.3479998512865 6.00000109287228 4.00000000000074
  endloop
endfacet
endsolid 18650_Divider_Normal
