solid 18650_Divider_Loose
facet normal 1.48998245306154e-008 -1.0 4.61815741850734e-017
  outer loop
    vertex 78.2000000000001 1.16516638702135e-006 8.65438901097878e-013
    vertex 76.1000000000001 1.13387675960164e-006 4.00000000000084
    vertex 76.1000000000001 1.13387676383159e-006 8.54449844211655e-013
  endloop
endfacet
facet normal 1.48998245306154e-008 -1.0 4.61815741850734e-017
  outer loop
    vertex 76.1000000000001 1.13387675960164e-006 4.00000000000084
    vertex 78.2000000000001 1.16516638702135e-006 8.65438901097878e-013
    vertex 76.2000000000001 1.13536674213366e-006 4.00000000000084
  endloop
endfacet
facet normal 1.48998245306154e-008 -1.0 4.61815741850734e-017
  outer loop
    vertex 76.2000000000001 1.13536674213366e-006 4.00000000000084
    vertex 78.2000000000001 1.16516638702135e-006 8.65438901097878e-013
    vertex 78.1999999999994 1.16516639830122e-006 64.0000000000008
  endloop
endfacet
facet normal 1.48998245306154e-008 -1.0 4.61815741850734e-017
  outer loop
    vertex 76.2000000000001 1.13536674213366e-006 4.00000000000084
    vertex 78.1999999999994 1.16516639830122e-006 64.0000000000008
    vertex 76.1999999999994 1.13536674072368e-006 64.0000000000008
  endloop
endfacet
facet normal -1.48998250352828e-008 1.0 -4.73556649779989e-016
  outer loop
    vertex -1.48998253202137e-007 10.0 63.9999999999999
    vertex 2.09999985100175 10.0000000312896 -4.14529521823003e-014
    vertex -1.48998253202137e-007 10.0 -5.06178432502227e-014
  endloop
endfacet
facet normal -1.48998250352828e-008 1.0 -4.73556649779989e-016
  outer loop
    vertex 2.09999985100175 10.0000000312896 -4.14529521823003e-014
    vertex -1.48998253202137e-007 10.0 63.9999999999999
    vertex 1.99999985100175 10.0000000297997 3.99999999999991
  endloop
endfacet
facet normal -1.48998250352828e-008 1.0 -4.73556649779989e-016
  outer loop
    vertex 1.99999985100175 10.0000000297997 3.99999999999991
    vertex -1.48998253202137e-007 10.0 63.9999999999999
    vertex 1.99999985100175 10.0000000297997 64.0
  endloop
endfacet
facet normal -1.48998250352828e-008 1.0 -4.73556649779989e-016
  outer loop
    vertex 2.09999985100175 10.0000000312897 3.99999999999991
    vertex 2.09999985100175 10.0000000312896 -4.14529521823003e-014
    vertex 1.99999985100175 10.0000000297997 3.99999999999991
  endloop
endfacet
facet normal 1.48998350508644e-008 -1.0 1.44592377463768e-016
  outer loop
    vertex 2.1 3.12896484002678e-008 1.12798659298333e-014
    vertex 0.0 -2.8199664825479e-015 64.0
    vertex 0.0 0.0 0.0
  endloop
endfacet
facet normal 1.48998350508644e-008 -1.0 1.44592377463768e-016
  outer loop
    vertex 0.0 -2.8199664825479e-015 64.0
    vertex 2.1 3.12896484002678e-008 1.12798659298333e-014
    vertex 2.0 2.97996616382967e-008 4.00000000000001
  endloop
endfacet
facet normal 1.48998350508644e-008 -1.0 1.44592377463768e-016
  outer loop
    vertex 2.0 2.97996616382967e-008 4.00000000000001
    vertex 2.1 3.12896484002678e-008 1.12798659298333e-014
    vertex 2.1 3.12896441703181e-008 4.00000000000001
  endloop
endfacet
facet normal 1.48998350508644e-008 -1.0 1.44592377463768e-016
  outer loop
    vertex 0.0 -2.8199664825479e-015 64.0
    vertex 2.0 2.97996616382967e-008 4.00000000000001
    vertex 2.0 2.97996799680789e-008 64.0
  endloop
endfacet
facet normal 1.04664419724636e-013 -2.5121301025642e-014 1.0
  outer loop
    vertex 2.0 2.97996616382967e-008 4.00000000000001
    vertex 2.09999985100175 10.0000000312897 3.99999999999991
    vertex 1.99999985100175 10.0000000297997 3.99999999999991
  endloop
endfacet
facet normal 1.04664419724636e-013 -2.5121301025642e-014 1.0
  outer loop
    vertex 2.09999985100175 10.0000000312897 3.99999999999991
    vertex 2.0 2.97996616382967e-008 4.00000000000001
    vertex 2.1 3.12896441703181e-008 4.00000000000001
  endloop
endfacet
facet normal 1.04664419724636e-013 -2.5121301025642e-014 1.0
  outer loop
    vertex 2.09999985100175 10.0000000312897 3.99999999999991
    vertex 2.1 3.12896441703181e-008 4.00000000000001
    vertex 4.65199806547815 7.44800189286191 3.99999999999993
  endloop
endfacet
facet normal 1.04664419724636e-013 -2.5121301025642e-014 1.0
  outer loop
    vertex 4.65199806547815 7.44800189286191 3.99999999999993
    vertex 2.1 3.12896441703181e-008 4.00000000000001
    vertex 4.65199801746523 6.00000006931403 3.99999999999995
  endloop
endfacet
facet normal 1.04664419724636e-013 -2.5121301025642e-014 1.0
  outer loop
    vertex 2.1 3.12896441703181e-008 4.00000000000001
    vertex 4.6519980472649 4.00000006931402 3.99999999999995
    vertex 4.65199801746523 6.00000006931403 3.99999999999995
  endloop
endfacet
facet normal 1.04664419724636e-013 -2.5121301025642e-014 1.0
  outer loop
    vertex 4.6519980472649 4.00000006931402 3.99999999999995
    vertex 2.1 3.12896441703181e-008 4.00000000000001
    vertex 4.65199821137734 2.55199831871563 3.99999999999833
  endloop
endfacet
facet normal 1.04664419724636e-013 -2.5121301025642e-014 1.0
  outer loop
    vertex 4.6519980472649 4.00000006931402 3.99999999999995
    vertex 4.75199801746523 6.00000007080401 3.99999999999995
    vertex 4.65199801746523 6.00000006931403 3.99999999999995
  endloop
endfacet
facet normal 1.04664419724636e-013 -2.5121301025642e-014 1.0
  outer loop
    vertex 4.75199801746523 6.00000007080401 3.99999999999995
    vertex 4.6519980472649 4.00000006931402 3.99999999999995
    vertex 4.75199804726491 4.000000070804 3.99999999999995
  endloop
endfacet
facet normal 1.0 -3.31578471501624e-008 -6.96179230525144e-014
  outer loop
    vertex 4.65199806547757 7.44800189286207 2.38152052823024e-013
    vertex 4.65199801746523 6.00000006931403 3.99999999999995
    vertex 4.65199801746525 6.00000006931399 -7.52786721850677e-014
  endloop
endfacet
facet normal 1.0 -3.31578471501624e-008 -6.96179230525144e-014
  outer loop
    vertex 4.65199801746523 6.00000006931403 3.99999999999995
    vertex 4.65199806547757 7.44800189286207 2.38152052823024e-013
    vertex 4.65199806547815 7.44800189286191 3.99999999999993
  endloop
endfacet
facet normal -1.0 -1.48998253202137e-008 3.5828547291448e-024
  outer loop
    vertex -1.48998253202137e-007 10.0 63.9999999999999
    vertex 0.0 0.0 0.0
    vertex 0.0 -2.8199664825479e-015 64.0
  endloop
endfacet
facet normal -1.0 -1.48998253202137e-008 3.5828547291448e-024
  outer loop
    vertex 0.0 0.0 0.0
    vertex -1.48998253202137e-007 10.0 63.9999999999999
    vertex -1.48998253202137e-007 10.0 -5.06178432502227e-014
  endloop
endfacet
facet normal -1.48998346307665e-008 1.0 -9.99265664804661e-017
  outer loop
    vertex 76.0999998510018 10.0000011338767 4.00000000000075
    vertex 78.1999998510018 10.0000011651664 8.11648595554788e-013
    vertex 76.0999998510018 10.0000011338768 7.93257126651877e-013
  endloop
endfacet
facet normal -1.48998346307665e-008 1.0 -9.99265664804661e-017
  outer loop
    vertex 78.1999998510018 10.0000011651664 8.11648595554788e-013
    vertex 76.0999998510018 10.0000011338767 4.00000000000075
    vertex 76.1999998510018 10.0000011353667 4.00000000000075
  endloop
endfacet
facet normal -1.48998346307665e-008 1.0 -9.99265664804661e-017
  outer loop
    vertex 78.1999998510018 10.0000011651664 8.11648595554788e-013
    vertex 76.1999998510018 10.0000011353667 4.00000000000075
    vertex 78.1999998510011 10.0000011651664 64.0000000000008
  endloop
endfacet
facet normal -1.48998346307665e-008 1.0 -9.99265664804661e-017
  outer loop
    vertex 78.1999998510011 10.0000011651664 64.0000000000008
    vertex 76.1999998510018 10.0000011353667 4.00000000000075
    vertex 76.1999998510011 10.0000011353667 64.0000000000008
  endloop
endfacet
facet normal -1.0 2.07099975479192e-008 -1.24078524480208e-013
  outer loop
    vertex 73.5479998812741 7.44800108810025 4.00000000000035
    vertex 73.5479998512866 6.00000109585231 7.37576666409365e-013
    vertex 73.5479998512865 6.00000109585225 4.00000000000074
  endloop
endfacet
facet normal -1.0 2.07099975479192e-008 -1.24078524480208e-013
  outer loop
    vertex 73.5479998512866 6.00000109585231 7.37576666409365e-013
    vertex 73.5479998812741 7.44800108810025 4.00000000000035
    vertex 73.5479998812751 7.44800108810048 8.82514394898479e-013
  endloop
endfacet
facet normal -1.18223815839883e-014 -1.76151363437088e-022 1.0
  outer loop
    vertex 4.75199807706456 2.000000070804 62.0
    vertex 73.4479998214869 8.00000109436243 62.0000000000008
    vertex 4.75199798766558 8.00000007080399 62.0
  endloop
endfacet
facet normal -1.18223815839883e-014 -1.76151363437088e-022 1.0
  outer loop
    vertex 73.4479998214869 8.00000109436243 62.0000000000008
    vertex 4.75199807706456 2.000000070804 62.0
    vertex 73.4479999108858 2.00000109436227 62.0000000000008
  endloop
endfacet
facet normal -1.48998231943671e-008 1.0 -9.79471389887087e-017
  outer loop
    vertex 4.75199801746523 6.00000007080402 59.9999999999999
    vertex 73.4479998512866 6.00000109436227 4.00000000000074
    vertex 4.75199801746523 6.00000007080401 3.99999999999995
  endloop
endfacet
facet normal -1.48998231943671e-008 1.0 -9.79471389887087e-017
  outer loop
    vertex 73.4479998512866 6.00000109436227 4.00000000000074
    vertex 4.75199801746523 6.00000007080402 59.9999999999999
    vertex 73.4479998512866 6.00000109436228 60.0000000000008
  endloop
endfacet
facet normal -1.48998231943671e-008 1.0 -9.79471389887087e-017
  outer loop
    vertex 4.65199801746523 6.00000006931403 3.99999999999995
    vertex 73.5479998512866 6.00000109585231 7.37576666409365e-013
    vertex 4.65199801746525 6.00000006931399 -7.52786721850677e-014
  endloop
endfacet
facet normal -1.48998231943671e-008 1.0 -9.79471389887087e-017
  outer loop
    vertex 73.5479998512866 6.00000109585231 7.37576666409365e-013
    vertex 4.65199801746523 6.00000006931403 3.99999999999995
    vertex 4.75199801746523 6.00000007080401 3.99999999999995
  endloop
endfacet
facet normal -1.48998231943671e-008 1.0 -9.79471389887087e-017
  outer loop
    vertex 73.5479998512866 6.00000109585231 7.37576666409365e-013
    vertex 4.75199801746523 6.00000007080401 3.99999999999995
    vertex 73.5479998512865 6.00000109585225 4.00000000000074
  endloop
endfacet
facet normal -1.48998231943671e-008 1.0 -9.79471389887087e-017
  outer loop
    vertex 73.5479998512865 6.00000109585225 4.00000000000074
    vertex 4.75199801746523 6.00000007080401 3.99999999999995
    vertex 73.4479998512866 6.00000109436227 4.00000000000074
  endloop
endfacet
facet normal -1.05357583506034e-008 0.70710678118654 -0.707106781186555
  outer loop
    vertex 73.4479998214869 8.00000109436243 62.0000000000008
    vertex 4.75199801746523 6.00000007080402 59.9999999999999
    vertex 4.75199798766558 8.00000007080399 62.0
  endloop
endfacet
facet normal -1.05357583506034e-008 0.70710678118654 -0.707106781186555
  outer loop
    vertex 4.75199801746523 6.00000007080402 59.9999999999999
    vertex 73.4479998214869 8.00000109436243 62.0000000000008
    vertex 73.4479998512866 6.00000109436228 60.0000000000008
  endloop
endfacet
facet normal -0.707106770650847 -0.707106791722248 -1.01320820738085e-013
  outer loop
    vertex 76.1000000000001 1.13387676383159e-006 8.54449844211655e-013
    vertex 73.5480000271732 2.55200103065487 3.99999999999874
    vertex 73.5480000271742 2.55200103065506 -7.35734584338669e-013
  endloop
endfacet
facet normal -0.707106770650847 -0.707106791722248 -1.01320820738085e-013
  outer loop
    vertex 73.5480000271732 2.55200103065487 3.99999999999874
    vertex 76.1000000000001 1.13387676383159e-006 8.54449844211655e-013
    vertex 76.1000000000001 1.13387675960164e-006 4.00000000000084
  endloop
endfacet
facet normal -5.63993308274352e-015 7.8959060671001e-015 1.0
  outer loop
    vertex 76.1999999999994 1.13536674072368e-006 64.0000000000008
    vertex 78.1999998510011 10.0000011651664 64.0000000000008
    vertex 76.1999998510011 10.0000011353667 64.0000000000008
  endloop
endfacet
facet normal -5.63993308274352e-015 7.8959060671001e-015 1.0
  outer loop
    vertex 78.1999998510011 10.0000011651664 64.0000000000008
    vertex 76.1999999999994 1.13536674072368e-006 64.0000000000008
    vertex 78.1999999999994 1.16516639830122e-006 64.0000000000008
  endloop
endfacet
facet normal 1.0 1.48998270121936e-008 1.11917419729218e-014
  outer loop
    vertex 78.1999998510018 10.0000011651664 8.11648595554788e-013
    vertex 78.1999999999994 1.16516639830122e-006 64.0000000000008
    vertex 78.2000000000001 1.16516638702135e-006 8.65438901097878e-013
  endloop
endfacet
facet normal 1.0 1.48998270121936e-008 1.11917419729218e-014
  outer loop
    vertex 78.1999999999994 1.16516639830122e-006 64.0000000000008
    vertex 78.1999998510018 10.0000011651664 8.11648595554788e-013
    vertex 78.1999998510011 10.0000011651664 64.0000000000008
  endloop
endfacet
facet normal 1.05357740374521e-008 -0.707106781186545 -0.70710678118655
  outer loop
    vertex 73.4479998810862 4.00000109436228 60.0000000000008
    vertex 4.75199807706456 2.000000070804 62.0
    vertex 4.75199804726491 4.00000007080403 60.0
  endloop
endfacet
facet normal 1.05357740374521e-008 -0.707106781186545 -0.70710678118655
  outer loop
    vertex 4.75199807706456 2.000000070804 62.0
    vertex 73.4479998810862 4.00000109436228 60.0000000000008
    vertex 73.4479999108858 2.00000109436227 62.0000000000008
  endloop
endfacet
facet normal -1.00840866000908e-022 6.76791955811494e-015 1.0
  outer loop
    vertex 0.0 -2.8199664825479e-015 64.0
    vertex 1.99999985100175 10.0000000297997 64.0
    vertex -1.48998253202137e-007 10.0 63.9999999999999
  endloop
endfacet
facet normal -1.00840866000908e-022 6.76791955811494e-015 1.0
  outer loop
    vertex 1.99999985100175 10.0000000297997 64.0
    vertex 0.0 -2.8199664825479e-015 64.0
    vertex 2.0 2.97996799680789e-008 64.0
  endloop
endfacet
facet normal 0.707106770650807 0.707106791722288 -3.84806402237134e-014
  outer loop
    vertex 2.09999985100175 10.0000000312897 3.99999999999991
    vertex 4.65199806547757 7.44800189286207 2.38152052823024e-013
    vertex 2.09999985100175 10.0000000312896 -4.14529521823003e-014
  endloop
endfacet
facet normal 0.707106770650807 0.707106791722288 -3.84806402237134e-014
  outer loop
    vertex 4.65199806547757 7.44800189286207 2.38152052823024e-013
    vertex 2.09999985100175 10.0000000312897 3.99999999999991
    vertex 4.65199806547815 7.44800189286191 3.99999999999993
  endloop
endfacet
facet normal 0.999999999999994 1.13336966446641e-007 -6.73266976109967e-014
  outer loop
    vertex 4.65199821137676 2.55199831871582 -1.37657196674921e-012
    vertex 4.6519980472649 4.00000006931402 3.99999999999995
    vertex 4.65199821137734 2.55199831871563 3.99999999999833
  endloop
endfacet
facet normal 0.999999999999994 1.13336966446641e-007 -6.73266976109967e-014
  outer loop
    vertex 4.6519980472649 4.00000006931402 3.99999999999995
    vertex 4.65199821137676 2.55199831871582 -1.37657196674921e-012
    vertex 4.65199804726494 4.00000006931399 -6.87505608002707e-014
  endloop
endfacet
facet normal 0.707106791722367 -0.707106770650728 -6.73411183112141e-014
  outer loop
    vertex 2.1 3.12896484002678e-008 1.12798659298333e-014
    vertex 4.65199821137734 2.55199831871563 3.99999999999833
    vertex 2.1 3.12896441703181e-008 4.00000000000001
  endloop
endfacet
facet normal 0.707106791722367 -0.707106770650728 -6.73411183112141e-014
  outer loop
    vertex 4.65199821137734 2.55199831871563 3.99999999999833
    vertex 2.1 3.12896484002678e-008 1.12798659298333e-014
    vertex 4.65199821137676 2.55199831871582 -1.37657196674921e-012
  endloop
endfacet
facet normal -1.67502818354943e-013 -2.62845224621485e-014 1.0
  outer loop
    vertex 73.4479998810862 4.00000109436224 4.00000000000073
    vertex 73.5479998512865 6.00000109585225 4.00000000000074
    vertex 73.4479998512866 6.00000109436227 4.00000000000074
  endloop
endfacet
facet normal -1.67502818354943e-013 -2.62845224621485e-014 1.0
  outer loop
    vertex 73.5479998512865 6.00000109585225 4.00000000000074
    vertex 73.4479998810862 4.00000109436224 4.00000000000073
    vertex 73.5479998810862 4.00000109585222 4.00000000000073
  endloop
endfacet
facet normal -1.67502818354943e-013 -2.62845224621485e-014 1.0
  outer loop
    vertex 73.5479998512865 6.00000109585225 4.00000000000074
    vertex 73.5479998810862 4.00000109585222 4.00000000000073
    vertex 73.5479998812741 7.44800108810025 4.00000000000035
  endloop
endfacet
facet normal -1.67502818354943e-013 -2.62845224621485e-014 1.0
  outer loop
    vertex 73.5479998812741 7.44800108810025 4.00000000000035
    vertex 73.5479998810862 4.00000109585222 4.00000000000073
    vertex 73.5480000271732 2.55200103065487 3.99999999999874
  endloop
endfacet
facet normal -1.67502818354943e-013 -2.62845224621485e-014 1.0
  outer loop
    vertex 73.5479998812741 7.44800108810025 4.00000000000035
    vertex 73.5480000271732 2.55200103065487 3.99999999999874
    vertex 76.0999998510018 10.0000011338767 4.00000000000075
  endloop
endfacet
facet normal -1.67502818354943e-013 -2.62845224621485e-014 1.0
  outer loop
    vertex 76.0999998510018 10.0000011338767 4.00000000000075
    vertex 73.5480000271732 2.55200103065487 3.99999999999874
    vertex 76.1000000000001 1.13387675960164e-006 4.00000000000084
  endloop
endfacet
facet normal -1.67502818354943e-013 -2.62845224621485e-014 1.0
  outer loop
    vertex 76.0999998510018 10.0000011338767 4.00000000000075
    vertex 76.1000000000001 1.13387675960164e-006 4.00000000000084
    vertex 76.1999998510018 10.0000011353667 4.00000000000075
  endloop
endfacet
facet normal -1.67502818354943e-013 -2.62845224621485e-014 1.0
  outer loop
    vertex 76.1999998510018 10.0000011353667 4.00000000000075
    vertex 76.1000000000001 1.13387675960164e-006 4.00000000000084
    vertex 76.2000000000001 1.13536674213366e-006 4.00000000000084
  endloop
endfacet
facet normal 1.08753874132092e-014 2.99477828545487e-014 -1.0
  outer loop
    vertex 2.09999985100175 10.0000000312896 -4.14529521823003e-014
    vertex 0.0 0.0 0.0
    vertex -1.48998253202137e-007 10.0 -5.06178432502227e-014
  endloop
endfacet
facet normal 1.08753874132092e-014 2.99477828545487e-014 -1.0
  outer loop
    vertex 0.0 0.0 0.0
    vertex 2.09999985100175 10.0000000312896 -4.14529521823003e-014
    vertex 2.1 3.12896484002678e-008 1.12798659298333e-014
  endloop
endfacet
facet normal 1.08753874132092e-014 2.99477828545487e-014 -1.0
  outer loop
    vertex 2.1 3.12896484002678e-008 1.12798659298333e-014
    vertex 2.09999985100175 10.0000000312896 -4.14529521823003e-014
    vertex 4.65199806547757 7.44800189286207 2.38152052823024e-013
  endloop
endfacet
facet normal 1.08753874132092e-014 2.99477828545487e-014 -1.0
  outer loop
    vertex 2.1 3.12896484002678e-008 1.12798659298333e-014
    vertex 4.65199806547757 7.44800189286207 2.38152052823024e-013
    vertex 4.65199801746525 6.00000006931399 -7.52786721850677e-014
  endloop
endfacet
facet normal 1.08753874132092e-014 2.99477828545487e-014 -1.0
  outer loop
    vertex 73.5479998512866 6.00000109585231 7.37576666409365e-013
    vertex 4.65199804726494 4.00000006931399 -6.87505608002707e-014
    vertex 4.65199801746525 6.00000006931399 -7.52786721850677e-014
  endloop
endfacet
facet normal 1.08753874132092e-014 2.99477828545487e-014 -1.0
  outer loop
    vertex 4.65199804726494 4.00000006931399 -6.87505608002707e-014
    vertex 73.5479998512866 6.00000109585231 7.37576666409365e-013
    vertex 73.5479998810862 4.00000109585232 7.26479987278236e-013
  endloop
endfacet
facet normal 1.08753874132092e-014 2.99477828545487e-014 -1.0
  outer loop
    vertex 73.5479998810862 4.00000109585232 7.26479987278236e-013
    vertex 73.5479998512866 6.00000109585231 7.37576666409365e-013
    vertex 73.5479998812751 7.44800108810048 8.82514394898479e-013
  endloop
endfacet
facet normal 1.08753874132092e-014 2.99477828545487e-014 -1.0
  outer loop
    vertex 73.5479998810862 4.00000109585232 7.26479987278236e-013
    vertex 73.5479998812751 7.44800108810048 8.82514394898479e-013
    vertex 73.5480000271742 2.55200103065506 -7.35734584338669e-013
  endloop
endfacet
facet normal 1.08753874132092e-014 2.99477828545487e-014 -1.0
  outer loop
    vertex 73.5480000271742 2.55200103065506 -7.35734584338669e-013
    vertex 73.5479998812751 7.44800108810048 8.82514394898479e-013
    vertex 76.0999998510018 10.0000011338768 7.93257126651877e-013
  endloop
endfacet
facet normal 1.08753874132092e-014 2.99477828545487e-014 -1.0
  outer loop
    vertex 73.5480000271742 2.55200103065506 -7.35734584338669e-013
    vertex 76.0999998510018 10.0000011338768 7.93257126651877e-013
    vertex 76.1000000000001 1.13387676383159e-006 8.54449844211655e-013
  endloop
endfacet
facet normal 1.08753874132092e-014 2.99477828545487e-014 -1.0
  outer loop
    vertex 76.1000000000001 1.13387676383159e-006 8.54449844211655e-013
    vertex 76.0999998510018 10.0000011338768 7.93257126651877e-013
    vertex 78.1999998510018 10.0000011651664 8.11648595554788e-013
  endloop
endfacet
facet normal 1.08753874132092e-014 2.99477828545487e-014 -1.0
  outer loop
    vertex 76.1000000000001 1.13387676383159e-006 8.54449844211655e-013
    vertex 78.1999998510018 10.0000011651664 8.11648595554788e-013
    vertex 78.2000000000001 1.16516638702135e-006 8.65438901097878e-013
  endloop
endfacet
facet normal 1.08753874132092e-014 2.99477828545487e-014 -1.0
  outer loop
    vertex 2.1 3.12896484002678e-008 1.12798659298333e-014
    vertex 4.65199804726494 4.00000006931399 -6.87505608002707e-014
    vertex 4.65199821137676 2.55199831871582 -1.37657196674921e-012
  endloop
endfacet
facet normal 1.08753874132092e-014 2.99477828545487e-014 -1.0
  outer loop
    vertex 4.65199804726494 4.00000006931399 -6.87505608002707e-014
    vertex 2.1 3.12896484002678e-008 1.12798659298333e-014
    vertex 4.65199801746525 6.00000006931399 -7.52786721850677e-014
  endloop
endfacet
facet normal -0.999999999999995 -1.00889126147389e-007 -1.21258562235469e-013
  outer loop
    vertex 73.5479998810862 4.00000109585222 4.00000000000073
    vertex 73.5480000271742 2.55200103065506 -7.35734584338669e-013
    vertex 73.5480000271732 2.55200103065487 3.99999999999874
  endloop
endfacet
facet normal -0.999999999999995 -1.00889126147389e-007 -1.21258562235469e-013
  outer loop
    vertex 73.5480000271742 2.55200103065506 -7.35734584338669e-013
    vertex 73.5479998810862 4.00000109585222 4.00000000000073
    vertex 73.5479998810862 4.00000109585232 7.26479987278236e-013
  endloop
endfacet
facet normal 1.48998230817186e-008 -1.0 3.83246658880001e-016
  outer loop
    vertex 73.5479998810862 4.00000109585222 4.00000000000073
    vertex 4.75199804726491 4.000000070804 3.99999999999995
    vertex 73.5479998810862 4.00000109585232 7.26479987278236e-013
  endloop
endfacet
facet normal 1.48998230817186e-008 -1.0 3.83246658880001e-016
  outer loop
    vertex 4.75199804726491 4.000000070804 3.99999999999995
    vertex 73.5479998810862 4.00000109585222 4.00000000000073
    vertex 73.4479998810862 4.00000109436224 4.00000000000073
  endloop
endfacet
facet normal 1.48998230817186e-008 -1.0 3.83246658880001e-016
  outer loop
    vertex 4.75199804726491 4.000000070804 3.99999999999995
    vertex 73.4479998810862 4.00000109436224 4.00000000000073
    vertex 4.75199804726491 4.00000007080403 60.0
  endloop
endfacet
facet normal 1.48998230817186e-008 -1.0 3.83246658880001e-016
  outer loop
    vertex 4.75199804726491 4.00000007080403 60.0
    vertex 73.4479998810862 4.00000109436224 4.00000000000073
    vertex 73.4479998810862 4.00000109436228 60.0000000000008
  endloop
endfacet
facet normal 1.48998230817186e-008 -1.0 3.83246658880001e-016
  outer loop
    vertex 73.5479998810862 4.00000109585232 7.26479987278236e-013
    vertex 4.6519980472649 4.00000006931402 3.99999999999995
    vertex 4.65199804726494 4.00000006931399 -6.87505608002707e-014
  endloop
endfacet
facet normal 1.48998230817186e-008 -1.0 3.83246658880001e-016
  outer loop
    vertex 4.6519980472649 4.00000006931402 3.99999999999995
    vertex 73.5479998810862 4.00000109585232 7.26479987278236e-013
    vertex 4.75199804726491 4.000000070804 3.99999999999995
  endloop
endfacet
facet normal -0.70710679172238 0.707106770650715 -6.38293945281265e-014
  outer loop
    vertex 76.0999998510018 10.0000011338767 4.00000000000075
    vertex 73.5479998812751 7.44800108810048 8.82514394898479e-013
    vertex 73.5479998812741 7.44800108810025 4.00000000000035
  endloop
endfacet
facet normal -0.70710679172238 0.707106770650715 -6.38293945281265e-014
  outer loop
    vertex 73.5479998812751 7.44800108810048 8.82514394898479e-013
    vertex 76.0999998510018 10.0000011338767 4.00000000000075
    vertex 76.0999998510018 10.0000011338768 7.93257126651877e-013
  endloop
endfacet
facet normal -1.0 -1.48998313959597e-008 6.50361334299951e-018
  outer loop
    vertex 4.75199798766558 8.00000007080399 62.0
    vertex 4.75199804726491 4.00000007080403 60.0
    vertex 4.75199807706456 2.000000070804 62.0
  endloop
endfacet
facet normal -1.0 -1.48998313959597e-008 6.50361334299951e-018
  outer loop
    vertex 4.75199804726491 4.00000007080403 60.0
    vertex 4.75199798766558 8.00000007080399 62.0
    vertex 4.75199801746523 6.00000007080402 59.9999999999999
  endloop
endfacet
facet normal -1.0 -1.48998313959597e-008 6.50361334299951e-018
  outer loop
    vertex 4.75199804726491 4.00000007080403 60.0
    vertex 4.75199801746523 6.00000007080402 59.9999999999999
    vertex 4.75199801746523 6.00000007080401 3.99999999999995
  endloop
endfacet
facet normal -1.0 -1.48998313959597e-008 6.50361334299951e-018
  outer loop
    vertex 4.75199801746523 6.00000007080401 3.99999999999995
    vertex 4.75199804726491 4.000000070804 3.99999999999995
    vertex 4.75199804726491 4.00000007080403 60.0
  endloop
endfacet
facet normal 1.0 1.4899813835259e-008 6.24346661469315e-017
  outer loop
    vertex 73.4479998512866 6.00000109436227 4.00000000000074
    vertex 73.4479998810862 4.00000109436228 60.0000000000008
    vertex 73.4479998810862 4.00000109436224 4.00000000000073
  endloop
endfacet
facet normal 1.0 1.4899813835259e-008 6.24346661469315e-017
  outer loop
    vertex 73.4479998810862 4.00000109436228 60.0000000000008
    vertex 73.4479998214869 8.00000109436243 62.0000000000008
    vertex 73.4479999108858 2.00000109436227 62.0000000000008
  endloop
endfacet
facet normal 1.0 1.4899813835259e-008 6.24346661469315e-017
  outer loop
    vertex 73.4479998214869 8.00000109436243 62.0000000000008
    vertex 73.4479998810862 4.00000109436228 60.0000000000008
    vertex 73.4479998512866 6.00000109436228 60.0000000000008
  endloop
endfacet
facet normal 1.0 1.4899813835259e-008 6.24346661469315e-017
  outer loop
    vertex 73.4479998512866 6.00000109436228 60.0000000000008
    vertex 73.4479998810862 4.00000109436228 60.0000000000008
    vertex 73.4479998512866 6.00000109436227 4.00000000000074
  endloop
endfacet
facet normal 1.0 1.48998253202137e-008 1.17498552602055e-017
  outer loop
    vertex 1.99999985100175 10.0000000297997 3.99999999999991
    vertex 2.0 2.97996799680789e-008 64.0
    vertex 2.0 2.97996616382967e-008 4.00000000000001
  endloop
endfacet
facet normal 1.0 1.48998253202137e-008 1.17498552602055e-017
  outer loop
    vertex 2.0 2.97996799680789e-008 64.0
    vertex 1.99999985100175 10.0000000297997 3.99999999999991
    vertex 1.99999985100175 10.0000000297997 64.0
  endloop
endfacet
facet normal -1.0 -1.48998253202138e-008 -1.18438592269028e-014
  outer loop
    vertex 76.1999998510011 10.0000011353667 64.0000000000008
    vertex 76.2000000000001 1.13536674213366e-006 4.00000000000084
    vertex 76.1999999999994 1.13536674072368e-006 64.0000000000008
  endloop
endfacet
facet normal -1.0 -1.48998253202138e-008 -1.18438592269028e-014
  outer loop
    vertex 76.2000000000001 1.13536674213366e-006 4.00000000000084
    vertex 76.1999998510011 10.0000011353667 64.0000000000008
    vertex 76.1999998510018 10.0000011353667 4.00000000000075
  endloop
endfacet
endsolid 18650_Divider_Loose
