solid AA_Divider_Normal
facet normal -1.0 7.33191285463391e-014 6.76791955811484e-013
  outer loop
    vertex 58.0000000000029 1.99999999999629 3.99999999996045
    vertex 58.0000000000003 3.99999999999573 -3.98312809785875e-011
    vertex 58.0000000000002 1.99999999999576 -3.95393282965995e-011
  endloop
endfacet
facet normal -1.0 7.33191285463391e-014 6.76791955811484e-013
  outer loop
    vertex 58.0000000000003 3.99999999999573 -3.98312809785875e-011
    vertex 58.0000000000029 1.99999999999629 3.99999999996045
    vertex 58.000000000003 3.99999999999627 3.9999999999602
  endloop
endfacet
facet normal -0.707106781186598 -0.707106781186497 5.73784452544609e-013
  outer loop
    vertex 60.0000000000027 -3.84079434923024e-012 3.99999999995939
    vertex 58.0000000000002 1.99999999999576 -3.95393282965995e-011
    vertex 60.0 -4.38504788036198e-012 -4.06131801430382e-011
  endloop
endfacet
facet normal -0.707106781186598 -0.707106781186497 5.73784452544609e-013
  outer loop
    vertex 58.0000000000002 1.99999999999576 -3.95393282965995e-011
    vertex 60.0000000000027 -3.84079434923024e-012 3.99999999995939
    vertex 58.0000000000029 1.99999999999629 3.99999999996045
  endloop
endfacet
facet normal 1.0 -7.33191285463366e-014 -6.77261950225244e-013
  outer loop
    vertex 2.00000000000344 10.0000000000004 3.9999999999973
    vertex 2.00000000004334 8.3781204196498e-012 63.9999999999987
    vertex 2.00000000000271 3.91975341074158e-013 3.99999999999865
  endloop
endfacet
facet normal 1.0 -7.33191285463366e-014 -6.77261950225244e-013
  outer loop
    vertex 2.00000000004334 8.3781204196498e-012 63.9999999999987
    vertex 2.00000000000344 10.0000000000004 3.9999999999973
    vertex 2.00000000004408 10.0000000000084 63.9999999999973
  endloop
endfacet
facet normal 6.4136327760032e-014 1.0 -1.32987795782094e-013
  outer loop
    vertex 60.0000000000007 9.99999999999563 -4.19375851618161e-011
    vertex 62.0000000000434 10.000000000004 63.9999999999567
    vertex 62.0000000000007 9.99999999999548 -4.32582702265222e-011
  endloop
endfacet
facet normal 6.4136327760032e-014 1.0 -1.32987795782094e-013
  outer loop
    vertex 62.0000000000434 10.000000000004 63.9999999999567
    vertex 60.0000000000007 9.99999999999563 -4.19375851618161e-011
    vertex 60.0000000000034 9.99999999999613 3.99999999995803
  endloop
endfacet
facet normal 6.4136327760032e-014 1.0 -1.32987795782094e-013
  outer loop
    vertex 62.0000000000434 10.000000000004 63.9999999999567
    vertex 60.0000000000034 9.99999999999613 3.99999999995803
    vertex 60.0000000000434 10.0000000000041 63.999999999958
  endloop
endfacet
facet normal -5.3072322551569e-013 -0.707106781186641 -0.707106781186454
  outer loop
    vertex 57.9000000000421 2.00000000000399 61.9999999999605
    vertex 4.10000000004092 4.00000000000768 59.9999999999967
    vertex 57.9000000000409 4.00000000000374 59.9999999999603
  endloop
endfacet
facet normal -5.3072322551569e-013 -0.707106781186641 -0.707106781186454
  outer loop
    vertex 4.10000000004092 4.00000000000768 59.9999999999967
    vertex 57.9000000000421 2.00000000000399 61.9999999999605
    vertex 4.10000000004213 2.00000000000793 61.999999999997
  endloop
endfacet
facet normal 6.77314171826792e-013 1.34418402334733e-013 1.0
  outer loop
    vertex 57.9000000000421 2.00000000000399 61.9999999999605
    vertex 4.10000000004256 8.00000000000795 61.9999999999962
    vertex 4.10000000004213 2.00000000000793 61.999999999997
  endloop
endfacet
facet normal 6.77314171826792e-013 1.34418402334733e-013 1.0
  outer loop
    vertex 4.10000000004256 8.00000000000795 61.9999999999962
    vertex 57.9000000000421 2.00000000000399 61.9999999999605
    vertex 57.9000000000426 8.00000000000401 61.9999999999597
  endloop
endfacet
facet normal -7.33191285461551e-014 -1.0 1.33231722126636e-013
  outer loop
    vertex 57.9000000000409 4.00000000000374 59.9999999999603
    vertex 4.10000000000299 4.00000000000023 3.9999999999967
    vertex 57.900000000003 3.99999999999628 3.99999999996026
  endloop
endfacet
facet normal -7.33191285461551e-014 -1.0 1.33231722126636e-013
  outer loop
    vertex 4.10000000000299 4.00000000000023 3.9999999999967
    vertex 57.9000000000409 4.00000000000374 59.9999999999603
    vertex 4.10000000004092 4.00000000000768 59.9999999999967
  endloop
endfacet
facet normal -7.33191285461551e-014 -1.0 1.33231722126636e-013
  outer loop
    vertex 58.000000000003 3.99999999999627 3.9999999999602
    vertex 4.00000000000028 3.99999999999969 -3.25911509117874e-012
    vertex 58.0000000000003 3.99999999999573 -3.98312809785875e-011
  endloop
endfacet
facet normal -7.33191285461551e-014 -1.0 1.33231722126636e-013
  outer loop
    vertex 4.00000000000028 3.99999999999969 -3.25911509117874e-012
    vertex 58.000000000003 3.99999999999627 3.9999999999602
    vertex 57.900000000003 3.99999999999628 3.99999999996026
  endloop
endfacet
facet normal -7.33191285461551e-014 -1.0 1.33231722126636e-013
  outer loop
    vertex 4.00000000000028 3.99999999999969 -3.25911509117874e-012
    vertex 57.900000000003 3.99999999999628 3.99999999996026
    vertex 4.00000000000299 4.00000000000024 3.99999999999677
  endloop
endfacet
facet normal -7.33191285461551e-014 -1.0 1.33231722126636e-013
  outer loop
    vertex 4.00000000000299 4.00000000000024 3.99999999999677
    vertex 57.900000000003 3.99999999999628 3.99999999996026
    vertex 4.10000000000299 4.00000000000023 3.9999999999967
  endloop
endfacet
facet normal -4.27199564506671e-013 0.707106781186453 -0.707106781186642
  outer loop
    vertex 4.10000000004256 8.00000000000795 61.9999999999962
    vertex 57.9000000000411 6.00000000000373 59.99999999996
    vertex 4.10000000004106 6.00000000000768 59.9999999999964
  endloop
endfacet
facet normal -4.27199564506671e-013 0.707106781186453 -0.707106781186642
  outer loop
    vertex 57.9000000000411 6.00000000000373 59.99999999996
    vertex 4.10000000004256 8.00000000000795 61.9999999999962
    vertex 57.9000000000426 8.00000000000401 61.9999999999597
  endloop
endfacet
facet normal -7.24594620895817e-014 -1.0 1.33175847819475e-013
  outer loop
    vertex 2.00000000000271 3.91975341074158e-013 3.99999999999865
    vertex 0.0 0.0 0.0
    vertex 2.0 -1.46638257092491e-013 -1.35452466249662e-012
  endloop
endfacet
facet normal -7.24594620895817e-014 -1.0 1.33175847819475e-013
  outer loop
    vertex 0.0 0.0 0.0
    vertex 2.00000000000271 3.91975341074158e-013 3.99999999999865
    vertex 4.33446473158128e-011 8.52475867674229e-012 64.0
  endloop
endfacet
facet normal -7.24594620895817e-014 -1.0 1.33175847819475e-013
  outer loop
    vertex 4.33446473158128e-011 8.52475867674229e-012 64.0
    vertex 2.00000000000271 3.91975341074158e-013 3.99999999999865
    vertex 2.00000000004334 8.3781204196498e-012 63.9999999999987
  endloop
endfacet
facet normal 0.707106781186496 -0.707106781186599 -3.82716690530931e-013
  outer loop
    vertex 4.00000000000285 2.00000000000025 3.99999999999703
    vertex 2.0 -1.46638257092491e-013 -1.35452466249662e-012
    vertex 4.00000000000014 1.9999999999997 -2.9671624091907e-012
  endloop
endfacet
facet normal 0.707106781186496 -0.707106781186599 -3.82716690530931e-013
  outer loop
    vertex 2.0 -1.46638257092491e-013 -1.35452466249662e-012
    vertex 4.00000000000285 2.00000000000025 3.99999999999703
    vertex 2.00000000000271 3.91975341074158e-013 3.99999999999865
  endloop
endfacet
facet normal 1.0 -7.15566494947463e-014 -6.77320699526962e-013
  outer loop
    vertex 4.00000000000028 3.99999999999969 -3.25911509117874e-012
    vertex 4.00000000000285 2.00000000000025 3.99999999999703
    vertex 4.00000000000014 1.9999999999997 -2.9671624091907e-012
  endloop
endfacet
facet normal 1.0 -7.15566494947463e-014 -6.77320699526962e-013
  outer loop
    vertex 4.00000000000285 2.00000000000025 3.99999999999703
    vertex 4.00000000000028 3.99999999999969 -3.25911509117874e-012
    vertex 4.00000000000299 4.00000000000024 3.99999999999677
  endloop
endfacet
facet normal 1.0 -7.33191285463383e-014 -6.77144451621807e-013
  outer loop
    vertex 4.00000000000057 7.99999999999972 -3.77534125957368e-012
    vertex 4.00000000000313 6.00000000000023 3.99999999999649
    vertex 4.00000000000043 5.99999999999969 -3.51722817537621e-012
  endloop
endfacet
facet normal 1.0 -7.33191285463383e-014 -6.77144451621807e-013
  outer loop
    vertex 4.00000000000313 6.00000000000023 3.99999999999649
    vertex 4.00000000000057 7.99999999999972 -3.77534125957368e-012
    vertex 4.00000000000328 8.00000000000022 3.99999999999619
  endloop
endfacet
facet normal -6.76877397173248e-013 -1.31829509139857e-013 -1.0
  outer loop
    vertex 7.30018823169587e-013 10.0 -1.32440501877791e-012
    vertex 2.0 -1.46638257092491e-013 -1.35452466249662e-012
    vertex 0.0 0.0 0.0
  endloop
endfacet
facet normal -6.76877397173248e-013 -1.31829509139857e-013 -1.0
  outer loop
    vertex 2.0 -1.46638257092491e-013 -1.35452466249662e-012
    vertex 7.30018823169587e-013 10.0 -1.32440501877791e-012
    vertex 2.00000000000073 9.99999999999985 -2.67892968127453e-012
  endloop
endfacet
facet normal -6.76877397173248e-013 -1.31829509139857e-013 -1.0
  outer loop
    vertex 2.0 -1.46638257092491e-013 -1.35452466249662e-012
    vertex 2.00000000000073 9.99999999999985 -2.67892968127453e-012
    vertex 4.00000000000014 1.9999999999997 -2.9671624091907e-012
  endloop
endfacet
facet normal -6.76877397173248e-013 -1.31829509139857e-013 -1.0
  outer loop
    vertex 4.00000000000014 1.9999999999997 -2.9671624091907e-012
    vertex 2.00000000000073 9.99999999999985 -2.67892968127453e-012
    vertex 4.00000000000028 3.99999999999969 -3.25911509117874e-012
  endloop
endfacet
facet normal -6.76877397173248e-013 -1.31829509139857e-013 -1.0
  outer loop
    vertex 4.00000000000028 3.99999999999969 -3.25911509117874e-012
    vertex 2.00000000000073 9.99999999999985 -2.67892968127453e-012
    vertex 4.00000000000057 7.99999999999972 -3.77534125957368e-012
  endloop
endfacet
facet normal -6.76877397173248e-013 -1.31829509139857e-013 -1.0
  outer loop
    vertex 4.00000000000028 3.99999999999969 -3.25911509117874e-012
    vertex 4.00000000000057 7.99999999999972 -3.77534125957368e-012
    vertex 4.00000000000043 5.99999999999969 -3.51722817537621e-012
  endloop
endfacet
facet normal -6.76877397173248e-013 -1.31829509139857e-013 -1.0
  outer loop
    vertex 4.00000000000043 5.99999999999969 -3.51722817537621e-012
    vertex 58.0000000000003 3.99999999999573 -3.98312809785875e-011
    vertex 4.00000000000028 3.99999999999969 -3.25911509117874e-012
  endloop
endfacet
facet normal -6.76877397173248e-013 -1.31829509139857e-013 -1.0
  outer loop
    vertex 58.0000000000003 3.99999999999573 -3.98312809785875e-011
    vertex 4.00000000000043 5.99999999999969 -3.51722817537621e-012
    vertex 58.0000000000004 5.99999999999574 -4.0089394062785e-011
  endloop
endfacet
facet normal -6.76877397173248e-013 -1.31829509139857e-013 -1.0
  outer loop
    vertex 58.0000000000003 3.99999999999573 -3.98312809785875e-011
    vertex 60.0 -4.38504788036198e-012 -4.06131801430382e-011
    vertex 58.0000000000002 1.99999999999576 -3.95393282965995e-011
  endloop
endfacet
facet normal -6.76877397173248e-013 -1.31829509139857e-013 -1.0
  outer loop
    vertex 60.0 -4.38504788036198e-012 -4.06131801430382e-011
    vertex 58.0000000000003 3.99999999999573 -3.98312809785875e-011
    vertex 58.0000000000004 5.99999999999574 -4.0089394062785e-011
  endloop
endfacet
facet normal -6.76877397173248e-013 -1.31829509139857e-013 -1.0
  outer loop
    vertex 60.0 -4.38504788036198e-012 -4.06131801430382e-011
    vertex 58.0000000000004 5.99999999999574 -4.0089394062785e-011
    vertex 58.0000000000006 7.99999999999576 -4.03136675491919e-011
  endloop
endfacet
facet normal -6.76877397173248e-013 -1.31829509139857e-013 -1.0
  outer loop
    vertex 60.0 -4.38504788036198e-012 -4.06131801430382e-011
    vertex 58.0000000000006 7.99999999999576 -4.03136675491919e-011
    vertex 60.0000000000007 9.99999999999563 -4.19375851618161e-011
  endloop
endfacet
facet normal -6.76877397173248e-013 -1.31829509139857e-013 -1.0
  outer loop
    vertex 60.0 -4.38504788036198e-012 -4.06131801430382e-011
    vertex 60.0000000000007 9.99999999999563 -4.19375851618161e-011
    vertex 62.0 -4.53168613745447e-012 -4.19564249396047e-011
  endloop
endfacet
facet normal -6.76877397173248e-013 -1.31829509139857e-013 -1.0
  outer loop
    vertex 62.0 -4.53168613745447e-012 -4.19564249396047e-011
    vertex 60.0000000000007 9.99999999999563 -4.19375851618161e-011
    vertex 62.0000000000007 9.99999999999548 -4.32582702265222e-011
  endloop
endfacet
facet normal -1.0 7.33191285463358e-014 6.65512089881294e-013
  outer loop
    vertex 60.0000000000426 4.12279099748503e-012 63.9999999999594
    vertex 60.0000000000034 9.99999999999613 3.99999999995803
    vertex 60.0000000000027 -3.84079434923024e-012 3.99999999995939
  endloop
endfacet
facet normal -1.0 7.33191285463358e-014 6.65512089881294e-013
  outer loop
    vertex 60.0000000000034 9.99999999999613 3.99999999995803
    vertex 60.0000000000426 4.12279099748503e-012 63.9999999999594
    vertex 60.0000000000434 10.0000000000041 63.999999999958
  endloop
endfacet
facet normal 7.3284314145136e-014 1.0 -1.33151533506279e-013
  outer loop
    vertex 4.00000000000043 5.99999999999969 -3.51722817537621e-012
    vertex 58.0000000000032 5.99999999999628 3.99999999995991
    vertex 58.0000000000004 5.99999999999574 -4.0089394062785e-011
  endloop
endfacet
facet normal 7.3284314145136e-014 1.0 -1.33151533506279e-013
  outer loop
    vertex 58.0000000000032 5.99999999999628 3.99999999995991
    vertex 4.00000000000043 5.99999999999969 -3.51722817537621e-012
    vertex 57.9000000000032 5.99999999999628 3.99999999995998
  endloop
endfacet
facet normal 7.3284314145136e-014 1.0 -1.33151533506279e-013
  outer loop
    vertex 57.9000000000032 5.99999999999628 3.99999999995998
    vertex 4.00000000000043 5.99999999999969 -3.51722817537621e-012
    vertex 4.00000000000313 6.00000000000023 3.99999999999649
  endloop
endfacet
facet normal 7.3284314145136e-014 1.0 -1.33151533506279e-013
  outer loop
    vertex 57.9000000000032 5.99999999999628 3.99999999995998
    vertex 4.00000000000313 6.00000000000023 3.99999999999649
    vertex 4.10000000000313 6.00000000000022 3.99999999999642
  endloop
endfacet
facet normal 7.3284314145136e-014 1.0 -1.33151533506279e-013
  outer loop
    vertex 4.10000000000313 6.00000000000022 3.99999999999642
    vertex 57.9000000000411 6.00000000000373 59.99999999996
    vertex 57.9000000000032 5.99999999999628 3.99999999995998
  endloop
endfacet
facet normal 7.3284314145136e-014 1.0 -1.33151533506279e-013
  outer loop
    vertex 57.9000000000411 6.00000000000373 59.99999999996
    vertex 4.10000000000313 6.00000000000022 3.99999999999642
    vertex 4.10000000004106 6.00000000000768 59.9999999999964
  endloop
endfacet
facet normal 6.78642558815682e-013 1.35811600061231e-013 1.0
  outer loop
    vertex 4.10000000000299 4.00000000000023 3.9999999999967
    vertex 4.00000000000313 6.00000000000023 3.99999999999649
    vertex 4.00000000000299 4.00000000000024 3.99999999999677
  endloop
endfacet
facet normal 6.78642558815682e-013 1.35811600061231e-013 1.0
  outer loop
    vertex 4.00000000000313 6.00000000000023 3.99999999999649
    vertex 4.10000000000299 4.00000000000023 3.9999999999967
    vertex 4.10000000000313 6.00000000000022 3.99999999999642
  endloop
endfacet
facet normal 6.78642558815682e-013 1.35811600061231e-013 1.0
  outer loop
    vertex 4.00000000000285 2.00000000000025 3.99999999999703
    vertex 2.00000000000344 10.0000000000004 3.9999999999973
    vertex 2.00000000000271 3.91975341074158e-013 3.99999999999865
  endloop
endfacet
facet normal 6.78642558815682e-013 1.35811600061231e-013 1.0
  outer loop
    vertex 2.00000000000344 10.0000000000004 3.9999999999973
    vertex 4.00000000000285 2.00000000000025 3.99999999999703
    vertex 4.00000000000299 4.00000000000024 3.99999999999677
  endloop
endfacet
facet normal 6.78642558815682e-013 1.35811600061231e-013 1.0
  outer loop
    vertex 2.00000000000344 10.0000000000004 3.9999999999973
    vertex 4.00000000000299 4.00000000000024 3.99999999999677
    vertex 4.00000000000313 6.00000000000023 3.99999999999649
  endloop
endfacet
facet normal 6.78642558815682e-013 1.35811600061231e-013 1.0
  outer loop
    vertex 2.00000000000344 10.0000000000004 3.9999999999973
    vertex 4.00000000000313 6.00000000000023 3.99999999999649
    vertex 4.00000000000328 8.00000000000022 3.99999999999619
  endloop
endfacet
facet normal 6.71592642609308e-013 1.35217392838123e-013 1.0
  outer loop
    vertex 60.0000000000027 -3.84079434923024e-012 3.99999999995939
    vertex 58.000000000003 3.99999999999627 3.9999999999602
    vertex 58.0000000000029 1.99999999999629 3.99999999996045
  endloop
endfacet
facet normal 6.71592642609308e-013 1.35217392838123e-013 1.0
  outer loop
    vertex 58.000000000003 3.99999999999627 3.9999999999602
    vertex 60.0000000000027 -3.84079434923024e-012 3.99999999995939
    vertex 58.0000000000032 5.99999999999628 3.99999999995991
  endloop
endfacet
facet normal 6.71592642609308e-013 1.35217392838123e-013 1.0
  outer loop
    vertex 58.0000000000032 5.99999999999628 3.99999999995991
    vertex 60.0000000000027 -3.84079434923024e-012 3.99999999995939
    vertex 58.0000000000033 7.99999999999626 3.99999999995966
  endloop
endfacet
facet normal 6.71592642609308e-013 1.35217392838123e-013 1.0
  outer loop
    vertex 58.0000000000033 7.99999999999626 3.99999999995966
    vertex 60.0000000000027 -3.84079434923024e-012 3.99999999995939
    vertex 60.0000000000034 9.99999999999613 3.99999999995803
  endloop
endfacet
facet normal 6.71592642609308e-013 1.35217392838123e-013 1.0
  outer loop
    vertex 58.000000000003 3.99999999999627 3.9999999999602
    vertex 57.9000000000032 5.99999999999628 3.99999999995998
    vertex 57.900000000003 3.99999999999628 3.99999999996026
  endloop
endfacet
facet normal 6.71592642609308e-013 1.35217392838123e-013 1.0
  outer loop
    vertex 57.9000000000032 5.99999999999628 3.99999999995998
    vertex 58.000000000003 3.99999999999627 3.9999999999602
    vertex 58.0000000000032 5.99999999999628 3.99999999995991
  endloop
endfacet
facet normal -1.0 7.33191285463269e-014 6.76791955811488e-013
  outer loop
    vertex 58.0000000000032 5.99999999999628 3.99999999995991
    vertex 58.0000000000006 7.99999999999576 -4.03136675491919e-011
    vertex 58.0000000000004 5.99999999999574 -4.0089394062785e-011
  endloop
endfacet
facet normal -1.0 7.33191285463269e-014 6.76791955811488e-013
  outer loop
    vertex 58.0000000000006 7.99999999999576 -4.03136675491919e-011
    vertex 58.0000000000032 5.99999999999628 3.99999999995991
    vertex 58.0000000000033 7.99999999999626 3.99999999995966
  endloop
endfacet
facet normal 1.0 -7.16271486568052e-014 -6.66128957549352e-013
  outer loop
    vertex 62.0000000000007 9.99999999999548 -4.32582702265222e-011
    vertex 62.0000000000426 3.97615274039254e-012 63.999999999958
    vertex 62.0 -4.53168613745447e-012 -4.19564249396047e-011
  endloop
endfacet
facet normal 1.0 -7.16271486568052e-014 -6.66128957549352e-013
  outer loop
    vertex 62.0000000000426 3.97615274039254e-012 63.999999999958
    vertex 62.0000000000007 9.99999999999548 -4.32582702265222e-011
    vertex 62.0000000000434 10.000000000004 63.9999999999567
  endloop
endfacet
facet normal 6.76791955811504e-013 1.3535839116225e-013 1.0
  outer loop
    vertex 62.0000000000426 3.97615274039254e-012 63.999999999958
    vertex 60.0000000000434 10.0000000000041 63.999999999958
    vertex 60.0000000000426 4.12279099748503e-012 63.9999999999594
  endloop
endfacet
facet normal 6.76791955811504e-013 1.3535839116225e-013 1.0
  outer loop
    vertex 60.0000000000434 10.0000000000041 63.999999999958
    vertex 62.0000000000426 3.97615274039254e-012 63.999999999958
    vertex 62.0000000000434 10.000000000004 63.9999999999567
  endloop
endfacet
facet normal -0.707106781186499 0.707106781186596 3.90321316057627e-013
  outer loop
    vertex 58.0000000000006 7.99999999999576 -4.03136675491919e-011
    vertex 60.0000000000034 9.99999999999613 3.99999999995803
    vertex 60.0000000000007 9.99999999999563 -4.19375851618161e-011
  endloop
endfacet
facet normal -0.707106781186499 0.707106781186596 3.90321316057627e-013
  outer loop
    vertex 60.0000000000034 9.99999999999613 3.99999999995803
    vertex 58.0000000000006 7.99999999999576 -4.03136675491919e-011
    vertex 58.0000000000033 7.99999999999626 3.99999999995966
  endloop
endfacet
facet normal -1.0 7.30018823170492e-014 6.77260114309565e-013
  outer loop
    vertex 4.33446473158128e-011 8.52475867674229e-012 64.0
    vertex 7.30018823169587e-013 10.0 -1.32440501877791e-012
    vertex 0.0 0.0 0.0
  endloop
endfacet
facet normal -1.0 7.30018823170492e-014 6.77260114309565e-013
  outer loop
    vertex 7.30018823169587e-013 10.0 -1.32440501877791e-012
    vertex 4.33446473158128e-011 8.52475867674229e-012 64.0
    vertex 4.40746661389824e-011 10.0000000000085 63.9999999999987
  endloop
endfacet
facet normal 6.76791955811505e-013 1.3423040456923e-013 1.0
  outer loop
    vertex 2.00000000004334 8.3781204196498e-012 63.9999999999987
    vertex 4.40746661389824e-011 10.0000000000085 63.9999999999987
    vertex 4.33446473158128e-011 8.52475867674229e-012 64.0
  endloop
endfacet
facet normal 6.76791955811505e-013 1.3423040456923e-013 1.0
  outer loop
    vertex 4.40746661389824e-011 10.0000000000085 63.9999999999987
    vertex 2.00000000004334 8.3781204196498e-012 63.9999999999987
    vertex 2.00000000004408 10.0000000000084 63.9999999999973
  endloop
endfacet
facet normal 7.36838355277316e-014 1.0 -1.33165264804386e-013
  outer loop
    vertex 7.30018823169587e-013 10.0 -1.32440501877791e-012
    vertex 2.00000000000344 10.0000000000004 3.9999999999973
    vertex 2.00000000000073 9.99999999999985 -2.67892968127453e-012
  endloop
endfacet
facet normal 7.36838355277316e-014 1.0 -1.33165264804386e-013
  outer loop
    vertex 2.00000000000344 10.0000000000004 3.9999999999973
    vertex 7.30018823169587e-013 10.0 -1.32440501877791e-012
    vertex 4.40746661389824e-011 10.0000000000085 63.9999999999987
  endloop
endfacet
facet normal 7.36838355277316e-014 1.0 -1.33165264804386e-013
  outer loop
    vertex 2.00000000000344 10.0000000000004 3.9999999999973
    vertex 4.40746661389824e-011 10.0000000000085 63.9999999999987
    vertex 2.00000000004408 10.0000000000084 63.9999999999973
  endloop
endfacet
facet normal -7.5168713952723e-014 -1.0 1.32884407865449e-013
  outer loop
    vertex 62.0000000000426 3.97615274039254e-012 63.999999999958
    vertex 60.0 -4.38504788036198e-012 -4.06131801430382e-011
    vertex 62.0 -4.53168613745447e-012 -4.19564249396047e-011
  endloop
endfacet
facet normal -7.5168713952723e-014 -1.0 1.32884407865449e-013
  outer loop
    vertex 60.0 -4.38504788036198e-012 -4.06131801430382e-011
    vertex 62.0000000000426 3.97615274039254e-012 63.999999999958
    vertex 60.0000000000027 -3.84079434923024e-012 3.99999999995939
  endloop
endfacet
facet normal -7.5168713952723e-014 -1.0 1.32884407865449e-013
  outer loop
    vertex 60.0000000000027 -3.84079434923024e-012 3.99999999995939
    vertex 62.0000000000426 3.97615274039254e-012 63.999999999958
    vertex 60.0000000000426 4.12279099748503e-012 63.9999999999594
  endloop
endfacet
facet normal 0.707106781186602 0.707106781186493 -5.70346914501658e-013
  outer loop
    vertex 2.00000000000073 9.99999999999985 -2.67892968127453e-012
    vertex 4.00000000000328 8.00000000000022 3.99999999999619
    vertex 4.00000000000057 7.99999999999972 -3.77534125957368e-012
  endloop
endfacet
facet normal 0.707106781186602 0.707106781186493 -5.70346914501658e-013
  outer loop
    vertex 4.00000000000328 8.00000000000022 3.99999999999619
    vertex 2.00000000000073 9.99999999999985 -2.67892968127453e-012
    vertex 2.00000000000344 10.0000000000004 3.9999999999973
  endloop
endfacet
facet normal -1.0 7.31268581043436e-014 6.77294034714744e-013
  outer loop
    vertex 4.10000000004256 8.00000000000795 61.9999999999962
    vertex 4.10000000004092 4.00000000000768 59.9999999999967
    vertex 4.10000000004213 2.00000000000793 61.999999999997
  endloop
endfacet
facet normal -1.0 7.31268581043436e-014 6.77294034714744e-013
  outer loop
    vertex 4.10000000004092 4.00000000000768 59.9999999999967
    vertex 4.10000000004256 8.00000000000795 61.9999999999962
    vertex 4.10000000004106 6.00000000000768 59.9999999999964
  endloop
endfacet
facet normal -1.0 7.31268581043436e-014 6.77294034714744e-013
  outer loop
    vertex 4.10000000004092 4.00000000000768 59.9999999999967
    vertex 4.10000000004106 6.00000000000768 59.9999999999964
    vertex 4.10000000000313 6.00000000000022 3.99999999999642
  endloop
endfacet
facet normal -1.0 7.31268581043436e-014 6.77294034714744e-013
  outer loop
    vertex 4.10000000000313 6.00000000000022 3.99999999999642
    vertex 4.10000000000299 4.00000000000023 3.9999999999967
    vertex 4.10000000004092 4.00000000000768 59.9999999999967
  endloop
endfacet
facet normal 1.0 -7.33191285463373e-014 -6.77187375465865e-013
  outer loop
    vertex 57.9000000000032 5.99999999999628 3.99999999995998
    vertex 57.9000000000409 4.00000000000374 59.9999999999603
    vertex 57.900000000003 3.99999999999628 3.99999999996026
  endloop
endfacet
facet normal 1.0 -7.33191285463373e-014 -6.77187375465865e-013
  outer loop
    vertex 57.9000000000409 4.00000000000374 59.9999999999603
    vertex 57.9000000000426 8.00000000000401 61.9999999999597
    vertex 57.9000000000421 2.00000000000399 61.9999999999605
  endloop
endfacet
facet normal 1.0 -7.33191285463373e-014 -6.77187375465865e-013
  outer loop
    vertex 57.9000000000426 8.00000000000401 61.9999999999597
    vertex 57.9000000000409 4.00000000000374 59.9999999999603
    vertex 57.9000000000411 6.00000000000373 59.99999999996
  endloop
endfacet
facet normal 1.0 -7.33191285463373e-014 -6.77187375465865e-013
  outer loop
    vertex 57.9000000000411 6.00000000000373 59.99999999996
    vertex 57.9000000000409 4.00000000000374 59.9999999999603
    vertex 57.9000000000032 5.99999999999628 3.99999999995998
  endloop
endfacet
endsolid AA_Divider_Normal
