solid OpenSCAD_Model
  facet normal 0 0 1
    outer loop
      vertex 2 2 0
      vertex 0 2 0
      vertex 2 0 0
    endloop
  endfacet
  facet normal 0 0 1
    outer loop
      vertex 6 8 0
      vertex 4 10 0
      vertex 4 8 0
    endloop
  endfacet
  facet normal -0 0 1
    outer loop
      vertex 0 6 0
      vertex 4 4 0
      vertex 4 6 0
    endloop
  endfacet
  facet normal 0 0 1
    outer loop
      vertex 4 4 0
      vertex 0 6 0
      vertex 0 4 0
    endloop
  endfacet
  facet normal 0 0 1
    outer loop
      vertex 10 4 0
      vertex 8 2 0
      vertex 10 2 0
    endloop
  endfacet
  facet normal 0 0 1
    outer loop
      vertex 6 2 0
      vertex 8 2 0
      vertex 6 4 0
    endloop
  endfacet
  facet normal -0 0 1
    outer loop
      vertex 6 4 0
      vertex 8 2 0
      vertex 10 4 0
    endloop
  endfacet
  facet normal -0 0 1
    outer loop
      vertex 8 8 0
      vertex 10 6 0
      vertex 10 8 0
    endloop
  endfacet
  facet normal 0 0 1
    outer loop
      vertex 6 6 0
      vertex 8 8 0
      vertex 6 8 0
    endloop
  endfacet
  facet normal 0 0 1
    outer loop
      vertex 8 8 0
      vertex 6 6 0
      vertex 10 6 0
    endloop
  endfacet
  facet normal 0 0 1
    outer loop
      vertex 10 8 0
      vertex 11 11 0
      vertex 10 10 0
    endloop
  endfacet
  facet normal 0 0 1
    outer loop
      vertex 11 11 0
      vertex 8 10 0
      vertex 10 10 0
    endloop
  endfacet
  facet normal 0 0 1
    outer loop
      vertex 8 10 0
      vertex 6 8 0
      vertex 8 8 0
    endloop
  endfacet
  facet normal 0 0 1
    outer loop
      vertex 8 10 0
      vertex 4 10 0
      vertex 6 8 0
    endloop
  endfacet
  facet normal 0 0 1
    outer loop
      vertex 11 11 0
      vertex 4 10 0
      vertex 8 10 0
    endloop
  endfacet
  facet normal -0 0 1
    outer loop
      vertex -1 11 0
      vertex 4 10 0
      vertex 11 11 0
    endloop
  endfacet
  facet normal 0 0 1
    outer loop
      vertex 2 10 0
      vertex 0 8 0
      vertex 2 8 0
    endloop
  endfacet
  facet normal 0 0 1
    outer loop
      vertex -1 11 0
      vertex 0 6 0
      vertex 0 8 0
    endloop
  endfacet
  facet normal 0 0 1
    outer loop
      vertex 0 6 0
      vertex -1 11 0
      vertex 0 4 0
    endloop
  endfacet
  facet normal 0 0 1
    outer loop
      vertex -1 -1 0
      vertex 0 4 0
      vertex -1 11 0
    endloop
  endfacet
  facet normal 0 0 1
    outer loop
      vertex 2 10 0
      vertex -1 11 0
      vertex 0 8 0
    endloop
  endfacet
  facet normal 0 0 1
    outer loop
      vertex 4 10 0
      vertex -1 11 0
      vertex 2 10 0
    endloop
  endfacet
  facet normal 0 0 1
    outer loop
      vertex 10 6 0
      vertex 11 11 0
      vertex 10 8 0
    endloop
  endfacet
  facet normal 0 0 1
    outer loop
      vertex 11 11 0
      vertex 10 6 0
      vertex 11 -1 0
    endloop
  endfacet
  facet normal -0 0 1
    outer loop
      vertex 10 4 0
      vertex 11 -1 0
      vertex 10 6 0
    endloop
  endfacet
  facet normal -0 0 1
    outer loop
      vertex 10 2 0
      vertex 11 -1 0
      vertex 10 4 0
    endloop
  endfacet
  facet normal -0 0 1
    outer loop
      vertex 10 0 0
      vertex 11 -1 0
      vertex 10 2 0
    endloop
  endfacet
  facet normal -0 0 1
    outer loop
      vertex 8 0 0
      vertex 11 -1 0
      vertex 10 0 0
    endloop
  endfacet
  facet normal 0 0 1
    outer loop
      vertex 8 2 0
      vertex 6 2 0
      vertex 8 0 0
    endloop
  endfacet
  facet normal 0 0 1
    outer loop
      vertex 4 0 0
      vertex 6 2 0
      vertex 4 2 0
    endloop
  endfacet
  facet normal 0 0 1
    outer loop
      vertex 6 2 0
      vertex 4 0 0
      vertex 8 0 0
    endloop
  endfacet
  facet normal -0 0 1
    outer loop
      vertex 4 0 0
      vertex 11 -1 0
      vertex 8 0 0
    endloop
  endfacet
  facet normal 0 0 1
    outer loop
      vertex -1 -1 0
      vertex 4 0 0
      vertex 2 0 0
    endloop
  endfacet
  facet normal 0 0 1
    outer loop
      vertex 4 0 0
      vertex -1 -1 0
      vertex 11 -1 0
    endloop
  endfacet
  facet normal 0 0 1
    outer loop
      vertex 0 2 0
      vertex -1 -1 0
      vertex 2 0 0
    endloop
  endfacet
  facet normal 0 0 1
    outer loop
      vertex 0 4 0
      vertex -1 -1 0
      vertex 0 2 0
    endloop
  endfacet
  facet normal 0 0 -1
    outer loop
      vertex -1 -1 -1
      vertex 11 11 -1
      vertex 11 -1 -1
    endloop
  endfacet
  facet normal -0 0 -1
    outer loop
      vertex 11 11 -1
      vertex -1 -1 -1
      vertex -1 11 -1
    endloop
  endfacet
  facet normal -1 0 0
    outer loop
      vertex -1 -1 -1
      vertex -1 11 0
      vertex -1 11 -1
    endloop
  endfacet
  facet normal -1 -0 0
    outer loop
      vertex -1 11 0
      vertex -1 -1 -1
      vertex -1 -1 0
    endloop
  endfacet
  facet normal 0 -1 0
    outer loop
      vertex -1 -1 -1
      vertex 11 -1 0
      vertex -1 -1 0
    endloop
  endfacet
  facet normal 0 -1 -0
    outer loop
      vertex 11 -1 0
      vertex -1 -1 -1
      vertex 11 -1 -1
    endloop
  endfacet
  facet normal 0 0 1
    outer loop
      vertex 4 6 2
      vertex 6 6 2
      vertex 6 8 2
    endloop
  endfacet
  facet normal 0 0 1
    outer loop
      vertex 6 6 2
      vertex 4 6 2
      vertex 6 4 2
    endloop
  endfacet
  facet normal 0 0 1
    outer loop
      vertex 4 6 2
      vertex 6 8 2
      vertex 4 8 2
    endloop
  endfacet
  facet normal 0 0 1
    outer loop
      vertex 4 4 2
      vertex 6 4 2
      vertex 4 6 2
    endloop
  endfacet
  facet normal 0 0 1
    outer loop
      vertex 6 4 2
      vertex 4 4 2
      vertex 6 2 2
    endloop
  endfacet
  facet normal 0 0 1
    outer loop
      vertex 4 4 2
      vertex 4 2 2
      vertex 6 2 2
    endloop
  endfacet
  facet normal 0 0 1
    outer loop
      vertex 2 2 2
      vertex 4 2 2
      vertex 4 4 2
    endloop
  endfacet
  facet normal 0 0 1
    outer loop
      vertex 4 2 2
      vertex 2 2 2
      vertex 4 0 2
    endloop
  endfacet
  facet normal -0 0 1
    outer loop
      vertex 0 4 2
      vertex 2 2 2
      vertex 4 4 2
    endloop
  endfacet
  facet normal 0 0 1
    outer loop
      vertex 2 2 2
      vertex 0 4 2
      vertex 0 2 2
    endloop
  endfacet
  facet normal -0 0 1
    outer loop
      vertex 6 6 2
      vertex 10 4 2
      vertex 10 6 2
    endloop
  endfacet
  facet normal 0 0 1
    outer loop
      vertex 10 4 2
      vertex 6 6 2
      vertex 6 4 2
    endloop
  endfacet
  facet normal 0 0 1
    outer loop
      vertex 2 8 2
      vertex 4 8 2
      vertex 4 10 2
    endloop
  endfacet
  facet normal 0 0 1
    outer loop
      vertex 2 8 2
      vertex 4 10 2
      vertex 2 10 2
    endloop
  endfacet
  facet normal 0 0 1
    outer loop
      vertex 4 8 2
      vertex 2 8 2
      vertex 4 6 2
    endloop
  endfacet
  facet normal 0 0 1
    outer loop
      vertex 0 6 2
      vertex 2 8 2
      vertex 0 8 2
    endloop
  endfacet
  facet normal 0 0 1
    outer loop
      vertex 2 8 2
      vertex 0 6 2
      vertex 4 6 2
    endloop
  endfacet
  facet normal 0 0 1
    outer loop
      vertex 4 0 2
      vertex 2 2 2
      vertex 2 0 2
    endloop
  endfacet
  facet normal -1 0 0
    outer loop
      vertex 0 2 0
      vertex 0 4 2
      vertex 0 4 0
    endloop
  endfacet
  facet normal -1 -0 0
    outer loop
      vertex 0 4 2
      vertex 0 2 0
      vertex 0 2 2
    endloop
  endfacet
  facet normal 0 1 -0
    outer loop
      vertex 4 4 0
      vertex 0 4 2
      vertex 4 4 2
    endloop
  endfacet
  facet normal 0 1 0
    outer loop
      vertex 0 4 2
      vertex 4 4 0
      vertex 0 4 0
    endloop
  endfacet
  facet normal 0 -1 0
    outer loop
      vertex 0 2 0
      vertex 2 2 2
      vertex 0 2 2
    endloop
  endfacet
  facet normal 0 -1 -0
    outer loop
      vertex 2 2 2
      vertex 0 2 0
      vertex 2 2 0
    endloop
  endfacet
  facet normal -1 0 0
    outer loop
      vertex 2 8 0
      vertex 2 10 2
      vertex 2 10 0
    endloop
  endfacet
  facet normal -1 -0 0
    outer loop
      vertex 2 10 2
      vertex 2 8 0
      vertex 2 8 2
    endloop
  endfacet
  facet normal -1 0 0
    outer loop
      vertex 0 6 0
      vertex 0 8 2
      vertex 0 8 0
    endloop
  endfacet
  facet normal -1 -0 0
    outer loop
      vertex 0 8 2
      vertex 0 6 0
      vertex 0 6 2
    endloop
  endfacet
  facet normal 0 1 -0
    outer loop
      vertex 2 8 0
      vertex 0 8 2
      vertex 2 8 2
    endloop
  endfacet
  facet normal 0 1 0
    outer loop
      vertex 0 8 2
      vertex 2 8 0
      vertex 0 8 0
    endloop
  endfacet
  facet normal 0 -1 0
    outer loop
      vertex 0 6 0
      vertex 4 6 2
      vertex 0 6 2
    endloop
  endfacet
  facet normal 0 -1 -0
    outer loop
      vertex 4 6 2
      vertex 0 6 0
      vertex 4 6 0
    endloop
  endfacet
  facet normal 0 1 -0
    outer loop
      vertex 11 11 -1
      vertex -1 11 0
      vertex 11 11 0
    endloop
  endfacet
  facet normal 0 1 0
    outer loop
      vertex -1 11 0
      vertex 11 11 -1
      vertex -1 11 -1
    endloop
  endfacet
  facet normal 1 -0 0
    outer loop
      vertex 4 8 2
      vertex 4 10 0
      vertex 4 10 2
    endloop
  endfacet
  facet normal 1 0 0
    outer loop
      vertex 4 10 0
      vertex 4 8 2
      vertex 4 8 0
    endloop
  endfacet
  facet normal 1 -0 0
    outer loop
      vertex 4 0 2
      vertex 4 2 0
      vertex 4 2 2
    endloop
  endfacet
  facet normal 1 0 0
    outer loop
      vertex 4 2 0
      vertex 4 0 2
      vertex 4 0 0
    endloop
  endfacet
  facet normal -1 0 0
    outer loop
      vertex 4 4 0
      vertex 4 6 2
      vertex 4 6 0
    endloop
  endfacet
  facet normal -1 -0 0
    outer loop
      vertex 4 6 2
      vertex 4 4 0
      vertex 4 4 2
    endloop
  endfacet
  facet normal -1 0 0
    outer loop
      vertex 2 0 0
      vertex 2 2 2
      vertex 2 2 0
    endloop
  endfacet
  facet normal -1 -0 0
    outer loop
      vertex 2 2 2
      vertex 2 0 0
      vertex 2 0 2
    endloop
  endfacet
  facet normal 0 -1 0
    outer loop
      vertex 2 0 0
      vertex 4 0 2
      vertex 2 0 2
    endloop
  endfacet
  facet normal 0 -1 -0
    outer loop
      vertex 4 0 2
      vertex 2 0 0
      vertex 4 0 0
    endloop
  endfacet
  facet normal 0 1 -0
    outer loop
      vertex 4 10 0
      vertex 2 10 2
      vertex 4 10 2
    endloop
  endfacet
  facet normal 0 1 0
    outer loop
      vertex 2 10 2
      vertex 4 10 0
      vertex 2 10 0
    endloop
  endfacet
  facet normal 1 -0 0
    outer loop
      vertex 6 6 2
      vertex 6 8 0
      vertex 6 8 2
    endloop
  endfacet
  facet normal 1 0 0
    outer loop
      vertex 6 8 0
      vertex 6 6 2
      vertex 6 6 0
    endloop
  endfacet
  facet normal 1 -0 0
    outer loop
      vertex 6 2 2
      vertex 6 4 0
      vertex 6 4 2
    endloop
  endfacet
  facet normal 1 0 0
    outer loop
      vertex 6 4 0
      vertex 6 2 2
      vertex 6 2 0
    endloop
  endfacet
  facet normal 0 -1 0
    outer loop
      vertex 4 2 0
      vertex 6 2 2
      vertex 4 2 2
    endloop
  endfacet
  facet normal 0 -1 -0
    outer loop
      vertex 6 2 2
      vertex 4 2 0
      vertex 6 2 0
    endloop
  endfacet
  facet normal 0 1 -0
    outer loop
      vertex 6 8 0
      vertex 4 8 2
      vertex 6 8 2
    endloop
  endfacet
  facet normal 0 1 0
    outer loop
      vertex 4 8 2
      vertex 6 8 0
      vertex 4 8 0
    endloop
  endfacet
  facet normal 0 1 -0
    outer loop
      vertex 10 6 0
      vertex 6 6 2
      vertex 10 6 2
    endloop
  endfacet
  facet normal 0 1 0
    outer loop
      vertex 6 6 2
      vertex 10 6 0
      vertex 6 6 0
    endloop
  endfacet
  facet normal 0 -1 0
    outer loop
      vertex 6 4 0
      vertex 10 4 2
      vertex 6 4 2
    endloop
  endfacet
  facet normal 0 -1 -0
    outer loop
      vertex 10 4 2
      vertex 6 4 0
      vertex 10 4 0
    endloop
  endfacet
  facet normal 1 -0 0
    outer loop
      vertex 10 0 2
      vertex 10 2 0
      vertex 10 2 2
    endloop
  endfacet
  facet normal 1 0 0
    outer loop
      vertex 10 2 0
      vertex 10 0 2
      vertex 10 0 0
    endloop
  endfacet
  facet normal -0 0 1
    outer loop
      vertex 8 2 2
      vertex 10 0 2
      vertex 10 2 2
    endloop
  endfacet
  facet normal 0 0 1
    outer loop
      vertex 10 0 2
      vertex 8 2 2
      vertex 8 0 2
    endloop
  endfacet
  facet normal -1 0 0
    outer loop
      vertex 8 0 0
      vertex 8 2 2
      vertex 8 2 0
    endloop
  endfacet
  facet normal -1 -0 0
    outer loop
      vertex 8 2 2
      vertex 8 0 0
      vertex 8 0 2
    endloop
  endfacet
  facet normal 0 1 -0
    outer loop
      vertex 10 2 0
      vertex 8 2 2
      vertex 10 2 2
    endloop
  endfacet
  facet normal 0 1 0
    outer loop
      vertex 8 2 2
      vertex 10 2 0
      vertex 8 2 0
    endloop
  endfacet
  facet normal 0 -1 0
    outer loop
      vertex 8 0 0
      vertex 10 0 2
      vertex 8 0 2
    endloop
  endfacet
  facet normal 0 -1 -0
    outer loop
      vertex 10 0 2
      vertex 8 0 0
      vertex 10 0 0
    endloop
  endfacet
  facet normal 1 -0 0
    outer loop
      vertex 11 -1 0
      vertex 11 11 -1
      vertex 11 11 0
    endloop
  endfacet
  facet normal 1 0 0
    outer loop
      vertex 11 11 -1
      vertex 11 -1 0
      vertex 11 -1 -1
    endloop
  endfacet
  facet normal 1 -0 0
    outer loop
      vertex 10 4 2
      vertex 10 6 0
      vertex 10 6 2
    endloop
  endfacet
  facet normal 1 0 0
    outer loop
      vertex 10 6 0
      vertex 10 4 2
      vertex 10 4 0
    endloop
  endfacet
  facet normal 1 -0 0
    outer loop
      vertex 10 8 2
      vertex 10 10 0
      vertex 10 10 2
    endloop
  endfacet
  facet normal 1 0 0
    outer loop
      vertex 10 10 0
      vertex 10 8 2
      vertex 10 8 0
    endloop
  endfacet
  facet normal -0 0 1
    outer loop
      vertex 8 10 2
      vertex 10 8 2
      vertex 10 10 2
    endloop
  endfacet
  facet normal 0 0 1
    outer loop
      vertex 10 8 2
      vertex 8 10 2
      vertex 8 8 2
    endloop
  endfacet
  facet normal -1 0 0
    outer loop
      vertex 8 8 0
      vertex 8 10 2
      vertex 8 10 0
    endloop
  endfacet
  facet normal -1 -0 0
    outer loop
      vertex 8 10 2
      vertex 8 8 0
      vertex 8 8 2
    endloop
  endfacet
  facet normal 0 1 -0
    outer loop
      vertex 10 10 0
      vertex 8 10 2
      vertex 10 10 2
    endloop
  endfacet
  facet normal 0 1 0
    outer loop
      vertex 8 10 2
      vertex 10 10 0
      vertex 8 10 0
    endloop
  endfacet
  facet normal 0 -1 0
    outer loop
      vertex 8 8 0
      vertex 10 8 2
      vertex 8 8 2
    endloop
  endfacet
  facet normal 0 -1 -0
    outer loop
      vertex 10 8 2
      vertex 8 8 0
      vertex 10 8 0
    endloop
  endfacet
endsolid OpenSCAD_Model
